<?xml version="1.0" encoding="UTF-8"?>
<svg id="Layer_1" data-name="Layer 1" xmlns="http://www.w3.org/2000/svg" xmlns:xlink="http://www.w3.org/1999/xlink" viewBox="0 0 267.26 63.34">
  <defs>
    <style>
      .cls-1 {
        fill: url(#linear-gradient-2);
      }

      .cls-2 {
        fill: #141431;
      }

      .cls-3 {
        fill: url(#linear-gradient-6);
      }

      .cls-4 {
        fill: url(#linear-gradient-11);
      }

      .cls-5 {
        fill: url(#linear-gradient-10);
      }

      .cls-6 {
        fill: url(#linear-gradient-5);
      }

      .cls-7 {
        fill: url(#linear-gradient-7);
      }

      .cls-8 {
        fill: url(#linear-gradient-9);
      }

      .cls-9 {
        fill: url(#linear-gradient-3);
      }

      .cls-10 {
        fill: url(#linear-gradient);
      }

      .cls-11 {
        fill: url(#linear-gradient-4);
      }

      .cls-12 {
        fill: url(#linear-gradient-8);
      }
    </style>
    <linearGradient id="linear-gradient" x1="22.01" y1="63.04" x2="48.89" y2="17.91" gradientUnits="userSpaceOnUse">
      <stop offset="0" stop-color="#73c6a0"/>
      <stop offset="1" stop-color="#079fa0"/>
    </linearGradient>
    <linearGradient id="linear-gradient-2" x1="-7.91" y1="48.28" x2="51.35" y2=".38" gradientUnits="userSpaceOnUse">
      <stop offset="0" stop-color="#04559f"/>
      <stop offset="1" stop-color="#7dd0de"/>
    </linearGradient>
    <linearGradient id="linear-gradient-3" x1="32.2" y1="-3.46" x2="129.9" y2="79.58" xlink:href="#linear-gradient"/>
    <linearGradient id="linear-gradient-4" x1="389.2" y1="-76.4" x2="148.3" y2="51.25" xlink:href="#linear-gradient"/>
    <linearGradient id="linear-gradient-5" x1="392.87" y1="-69.47" x2="151.98" y2="58.18" xlink:href="#linear-gradient"/>
    <linearGradient id="linear-gradient-6" x1="399.1" y1="-57.73" x2="158.2" y2="69.93" xlink:href="#linear-gradient"/>
    <linearGradient id="linear-gradient-7" x1="403.74" y1="-48.96" x2="162.85" y2="78.69" xlink:href="#linear-gradient"/>
    <linearGradient id="linear-gradient-8" x1="396.39" y1="-62.84" x2="155.49" y2="64.81" xlink:href="#linear-gradient"/>
    <linearGradient id="linear-gradient-9" x1="394.23" y1="-66.91" x2="153.34" y2="60.75" xlink:href="#linear-gradient"/>
    <linearGradient id="linear-gradient-10" x1="407.29" y1="-42.26" x2="166.4" y2="85.4" xlink:href="#linear-gradient"/>
    <linearGradient id="linear-gradient-11" x1="405.14" y1="-46.33" x2="164.24" y2="81.33" xlink:href="#linear-gradient"/>
  </defs>
  <g>
    <path class="cls-10" d="M56.64,19.17v25c0,2.38-1.27,4.58-3.33,5.78l-21.65,12.5c-2.06,1.19-4.61,1.19-6.67,0L4.82,50.8c5.35,1.55,14.02-.96,24.34-6.58,.08-.03,.16-.07,.24-.12l.48-.28,8.67-5c.67-.38,1.08-1.1,1.08-1.87v-10.56c0-.77-.41-1.48-1.08-1.87l-9.15-5.28c-.54-.31-1.18-.37-1.76-.18,11.34-6.11,20.64-8.42,25.66-5.66,2.06,1.19,3.33,3.39,3.33,5.78Z"/>
    <path class="cls-1" d="M17.02,26.39v10.56c0,.77,.41,1.48,1.08,1.87l9.15,5.28c.59,.34,1.3,.38,1.92,.12-10.32,5.62-18.99,8.13-24.34,6.58l-1.49-.86c-2.06-1.19-3.34-3.39-3.34-5.78V19.17c0-2.38,1.27-4.59,3.34-5.78L24.99,.89c2.06-1.19,4.61-1.19,6.67,0l21.65,12.5c-5.02-2.76-14.33-.45-25.66,5.66-.14,.05-.27,.1-.4,.18l-2.12,1.22s-.03,.02-.05,.03l-6.98,4.03c-.67,.39-1.08,1.1-1.08,1.87Z"/>
  </g>
  <path class="cls-9" d="M76.52,22.22c0,.69-.26,1.28-.77,1.76-.52,.49-1.13,.73-1.85,.73s-1.37-.24-1.87-.73c-.5-.49-.75-1.08-.75-1.76s.25-1.28,.75-1.76c.5-.49,1.13-.73,1.87-.73s1.37,.24,1.87,.73c.5,.49,.75,1.08,.75,1.76Zm-4.69,21.12v-15.79h4.09v15.79h-4.09Z"/>
  <path class="cls-2" d="M120.32,36.84c0,.98-.11,1.88-.32,2.71-.22,.83-.58,1.56-1.1,2.17-.52,.62-1.21,1.1-2.09,1.44-.88,.34-1.96,.52-3.25,.52s-2.37-.17-3.23-.52c-.86-.34-1.55-.82-2.07-1.44-.52-.62-.88-1.34-1.1-2.17-.21-.83-.32-1.75-.32-2.75v-9.21h4.09v9.21c0,.6,.03,1.11,.09,1.53,.06,.42,.19,.74,.39,.97,.2,.23,.47,.39,.8,.5,.33,.1,.78,.15,1.36,.15,1.12,0,1.84-.21,2.17-.65,.33-.43,.49-1.26,.49-2.49v-9.21h4.09v9.25Z"/>
  <path class="cls-2" d="M151.98,36.59c.23,1,.75,1.82,1.55,2.45,.8,.63,1.73,.95,2.8,.95,.92,0,1.73-.25,2.45-.75,.72-.5,1.28-1.14,1.68-1.91l3.14,2.15c-1.06,1.49-2.18,2.57-3.36,3.23-1.18,.66-2.51,.99-4,.99-1.29,0-2.45-.23-3.48-.69-1.03-.46-1.91-1.07-2.62-1.83-.72-.76-1.27-1.63-1.66-2.62-.39-.99-.58-2.03-.58-3.12s.19-2.09,.58-3.08c.39-.99,.95-1.86,1.68-2.62,.73-.76,1.61-1.36,2.65-1.81,1.03-.44,2.18-.67,3.44-.67s2.48,.23,3.48,.69c1,.46,1.85,1.1,2.54,1.94,.69,.83,1.21,1.81,1.57,2.95,.36,1.13,.54,2.39,.54,3.76h-12.39Zm7.79-3.48c-.63-1.4-1.79-2.11-3.48-2.11-.83,0-1.58,.19-2.26,.58-.67,.39-1.2,.9-1.57,1.53h7.31Z"/>
  <path class="cls-2" d="M134.47,27.16c-1.53,0-2.95,.41-4.18,1.14-2.17,1.27-3.7,3.5-4.02,6.1-.04,.33-.06,.67-.06,1.02,0,4.57,3.7,8.26,8.26,8.26s8.26-3.7,8.26-8.26-3.7-8.26-8.26-8.26Zm0,12.16c-2.15,0-3.9-1.75-3.9-3.91s1.75-3.9,3.9-3.9,3.91,1.75,3.91,3.9-1.75,3.91-3.91,3.91Z"/>
  <rect class="cls-2" x="126.21" y="17.7" width="4.08" height="16.71"/>
  <path class="cls-2" d="M103.07,40.39c-1.74,1.28-3.31,2.15-4.71,2.61-1.4,.46-2.85,.69-4.36,.69-1.84,0-3.59-.35-5.25-1.06-1.66-.71-3.11-1.66-4.36-2.86-1.25-1.2-2.24-2.61-2.98-4.24-.74-1.63-1.11-3.36-1.11-5.2s.36-3.62,1.08-5.25c.72-1.63,1.72-3.05,2.98-4.26,1.26-1.22,2.73-2.18,4.39-2.88,1.66-.71,3.43-1.06,5.3-1.06,1.38,0,2.79,.23,4.24,.69,1.45,.46,3.02,1.35,4.73,2.66l-2.56,3.79c-.76-.56-1.44-1-2.05-1.33-.61-.33-1.18-.58-1.7-.76-.53-.18-1.01-.3-1.45-.34s-.88-.07-1.31-.07c-1.18,0-2.31,.24-3.38,.71-1.07,.48-2,1.13-2.81,1.95-.81,.82-1.45,1.77-1.92,2.86-.48,1.08-.71,2.23-.71,3.45,0,1.12,.24,2.19,.71,3.23,.48,1.03,1.12,1.96,1.95,2.76,.82,.81,1.76,1.45,2.81,1.92,1.05,.48,2.17,.71,3.35,.71,.43,0,.86-.03,1.31-.1,.44-.07,.93-.19,1.45-.37,.53-.18,1.09-.44,1.7-.76,.61-.33,1.29-.77,2.05-1.33l2.61,3.84Z"/>
  <path class="cls-11" d="M183.9,38.24c0,.8-.16,1.54-.47,2.22-.32,.68-.75,1.26-1.29,1.75-.55,.49-1.17,.87-1.87,1.14-.7,.27-1.46,.41-2.26,.41-1.38,0-2.61-.41-3.71-1.23-1.09-.82-1.93-2.09-2.5-3.81l3.71-1.38c.32,1.03,.68,1.75,1.1,2.13,.42,.39,.88,.58,1.4,.58s.95-.18,1.31-.54c.36-.36,.54-.8,.54-1.31,0-.49-.18-.81-.54-.97-.36-.16-.83-.32-1.4-.5-.52-.17-1.08-.39-1.68-.67-.6-.27-1.16-.6-1.66-.99-.5-.39-.93-.85-1.27-1.38-.34-.53-.52-1.14-.52-1.83s.14-1.36,.43-1.94c.29-.57,.67-1.06,1.14-1.44,.47-.39,1.03-.69,1.66-.9,.63-.22,1.28-.32,1.94-.32,.89,0,1.75,.22,2.56,.65,.82,.43,1.62,1.25,2.39,2.46l-3.4,1.9c-.4-.69-.73-1.08-.99-1.18-.26-.1-.46-.15-.6-.15-.34,0-.6,.09-.78,.28-.17,.19-.26,.38-.26,.58,0,.26,.17,.48,.52,.67,.34,.19,.78,.37,1.29,.56,.52,.19,1.08,.4,1.7,.65,.62,.24,1.19,.56,1.7,.95,.52,.39,.95,.88,1.29,1.47,.34,.59,.52,1.31,.52,2.18Z"/>
  <path class="cls-6" d="M190.6,36.6c.23,1.01,.75,1.82,1.55,2.46,.8,.63,1.74,.95,2.8,.95,.92,0,1.74-.25,2.46-.75,.72-.5,1.28-1.14,1.68-1.92l3.15,2.15c-1.06,1.49-2.18,2.57-3.36,3.23-1.18,.66-2.51,.99-4.01,.99-1.29,0-2.46-.23-3.49-.69-1.03-.46-1.91-1.07-2.63-1.83-.72-.76-1.27-1.64-1.66-2.63-.39-.99-.58-2.03-.58-3.12s.19-2.09,.58-3.08c.39-.99,.95-1.87,1.68-2.63,.73-.76,1.62-1.36,2.65-1.81,1.03-.45,2.18-.67,3.45-.67s2.48,.23,3.49,.69c1.01,.46,1.85,1.11,2.54,1.94,.69,.83,1.21,1.82,1.57,2.95,.36,1.14,.54,2.39,.54,3.77h-12.41Zm7.8-3.49c-.63-1.41-1.8-2.11-3.49-2.11-.83,0-1.59,.19-2.26,.58-.68,.39-1.2,.9-1.57,1.53h7.33Z"/>
  <path class="cls-3" d="M228.14,43.37h-2.59l-7.28-15.77h4.4l3.71,7.93,.52,1.38,.47-1.42,3.53-7.89h4.44l-7.2,15.77Z"/>
  <path class="cls-7" d="M240.18,36.6c.23,1.01,.75,1.82,1.55,2.46,.8,.63,1.74,.95,2.8,.95,.92,0,1.74-.25,2.46-.75,.72-.5,1.28-1.14,1.68-1.92l3.15,2.15c-1.06,1.49-2.18,2.57-3.36,3.23-1.18,.66-2.51,.99-4.01,.99-1.29,0-2.46-.23-3.49-.69-1.03-.46-1.91-1.07-2.63-1.83-.72-.76-1.27-1.64-1.66-2.63-.39-.99-.58-2.03-.58-3.12s.19-2.09,.58-3.08c.39-.99,.95-1.87,1.68-2.63,.73-.76,1.62-1.36,2.65-1.81,1.03-.45,2.18-.67,3.45-.67s2.48,.23,3.49,.69c1.01,.46,1.85,1.11,2.54,1.94,.69,.83,1.21,1.82,1.57,2.95,.36,1.14,.54,2.39,.54,3.77h-12.41Zm7.8-3.49c-.63-1.41-1.8-2.11-3.49-2.11-.83,0-1.59,.19-2.26,.58-.68,.39-1.2,.9-1.57,1.53h7.33Z"/>
  <g>
    <path class="cls-12" d="M216.48,28.09c-.84-.34-1.9-.51-3.16-.51s-2.33,.17-3.19,.51c-.86,.34-1.54,.81-2.05,1.41-.51,.6-.86,1.32-1.08,2.13-.21,.82-.32,1.7-.32,2.66v9.07h4.01v-9.03c0-1.21,.16-2.02,.48-2.45,.32-.42,1.03-.63,2.13-.63,.56,0,1.01,.05,1.33,.15,.3,.09,.55,.24,.75,.45,0-.18,1.44-2.25,2.12-3.23-.31-.2-.65-.38-1.03-.53Z"/>
    <rect class="cls-8" x="206.69" y="27.59" width="2.97" height="8.19"/>
  </g>
  <g>
    <path class="cls-5" d="M266.23,28.09c-.84-.34-1.9-.51-3.16-.51s-2.33,.17-3.19,.51c-.86,.34-1.54,.81-2.05,1.41-.51,.6-.86,1.32-1.08,2.13-.21,.82-.32,1.7-.32,2.66v9.07h4.01v-9.03c0-1.21,.16-2.02,.48-2.45,.32-.42,1.03-.63,2.13-.63,.56,0,1.01,.05,1.33,.15,.3,.09,.55,.24,.75,.45,0-.18,1.44-2.25,2.12-3.23-.31-.2-.65-.38-1.03-.53Z"/>
    <rect class="cls-4" x="256.44" y="27.59" width="2.97" height="8.19"/>
  </g>
</svg>