<svg id="Layer_1" data-name="Layer 1" xmlns="http://www.w3.org/2000/svg" xmlns:xlink="http://www.w3.org/1999/xlink" viewBox="0 0 211.60164 51.0197"><defs><style>.cls-1,.cls-15,.cls-16,.cls-21,.cls-3,.cls-4{fill:none;}.cls-2{clip-path:url(#clip-path);}.cls-3,.cls-5{stroke:#878787;}.cls-11,.cls-12,.cls-13,.cls-14,.cls-15,.cls-16,.cls-21,.cls-3,.cls-4,.cls-5,.cls-7,.cls-8{stroke-miterlimit:10;}.cls-3{stroke-width:0.05px;}.cls-11,.cls-4,.cls-8,.cls-9{stroke:#9d9d9c;}.cls-10,.cls-11,.cls-17,.cls-18,.cls-19,.cls-20,.cls-22,.cls-23,.cls-4,.cls-7,.cls-8,.cls-9{stroke-linecap:round;}.cls-11,.cls-4,.cls-9{stroke-width:0.5px;}.cls-11,.cls-4,.cls-7,.cls-8,.cls-9{stroke-dasharray:5 4;}.cls-10,.cls-11,.cls-12,.cls-13,.cls-14,.cls-17,.cls-18,.cls-19,.cls-20,.cls-22,.cls-23,.cls-5,.cls-6,.cls-7,.cls-8,.cls-9{fill:#fff;}.cls-7{stroke:#b2b2b2;}.cls-8{stroke-width:0.75px;}.cls-10,.cls-17,.cls-18,.cls-19,.cls-20,.cls-22,.cls-23,.cls-9{stroke-linejoin:round;}.cls-10{stroke:#575756;}.cls-10,.cls-12,.cls-13,.cls-17,.cls-19,.cls-21,.cls-22{stroke-width:1.25px;}.cls-12,.cls-14,.cls-19,.cls-20{stroke:#063;}.cls-13,.cls-16,.cls-17,.cls-18{stroke:#e30613;}.cls-15,.cls-21,.cls-22,.cls-23{stroke:#1d66a6;}.cls-16{stroke-dasharray:18 3;}.cls-24{font-size:7.09363px;fill:#706f6f;font-family:SFProDisplay-Semibold, SF Pro Display;font-weight:600;letter-spacing:0.03504em;}.cls-25{font-size:21px;fill:#f39200;font-family:SFProDisplay-Regular, SF Pro Display;letter-spacing:0.03499em;}.cls-26{fill:#0f62a5;letter-spacing:0.03502em;}.cls-27,.cls-28{fill:#575756;}.cls-28{letter-spacing:0.02035em;}</style><clipPath id="clip-path" transform="translate(-18.47736 -3.01994)"><polygon class="cls-1" points="42.153 29.496 40.8 30.277 39.447 29.496 39.447 27.933 40.8 27.152 42.153 27.933 42.153 29.496"/></clipPath></defs><title>iCube Server</title><polygon class="cls-3" points="23.676 26.476 22.323 27.257 20.969 26.476 20.969 24.913 22.323 24.132 23.676 24.913 23.676 26.476"/><polyline class="cls-4" points="21.888 0.769 20.287 1.816 0.592 14.699 0.592 36.692 21.846 50.115"/><polyline class="cls-4" points="22.393 0.635 43.872 14.767 43.872 36.76 22.393 50.351"/><path class="cls-5" d="M40.68476,5.27766" transform="translate(-18.47736 -3.01994)"/><path class="cls-6" d="M19.3696,17.4227" transform="translate(-18.47736 -3.01994)"/><path class="cls-7" d="M19.17819,39.41957" transform="translate(-18.47736 -3.01994)"/><path class="cls-8" d="M19.69827,39.2004" transform="translate(-18.47736 -3.01994)"/><line class="cls-9" x1="1.29953" y1="36.27835" x2="18.50638" y2="27.47713"/><line class="cls-9" x1="42.96201" y1="36.39963" x2="25.16474" y2="27.15329"/><line class="cls-10" x1="43.74244" y1="34.47521" x2="43.74244" y2="36.69793"/><line class="cls-10" x1="41.94365" y1="37.81754" x2="43.73664" y2="36.7464"/><line class="cls-10" x1="41.50269" y1="35.54578" x2="43.61426" y2="36.78127"/><line class="cls-10" x1="0.68334" y1="34.63455" x2="0.68785" y2="36.68633"/><line class="cls-10" x1="2.7015" y1="37.83357" x2="0.68334" y2="36.70998"/><line class="cls-10" x1="2.9032" y1="35.41363" x2="0.76909" y2="36.56438"/><line class="cls-11" x1="22.14726" y1="21.72889" x2="22.13582" y2="3.7555"/><line class="cls-10" x1="20.16883" y1="1.98279" x2="22.14129" y2="0.625"/><line class="cls-10" x1="24.07271" y1="1.88007" x2="22.14129" y2="0.625"/><line class="cls-10" x1="22.14129" y1="0.70976" x2="22.14129" y2="3.11203"/><line class="cls-12" x1="18.37227" y1="24.093" x2="1.22092" y2="14.89074"/><line class="cls-13" x1="26.05563" y1="23.98071" x2="43.18819" y2="14.78966"/><path class="cls-14" d="M37.60814,29.78761a3.0548,3.0548,0,0,1,.44724-2.9436,3.304,3.304,0,0,1,1.97187-1.227" transform="translate(-18.47736 -3.01994)"/><path class="cls-15" d="M43.27871,30.5265a3.34627,3.34627,0,0,1-4.5513.6982,3.15058,3.15058,0,0,1-.64033-.59909" transform="translate(-18.47736 -3.01994)"/><path class="cls-16" d="M41.3035,25.60158a3.26248,3.26248,0,0,1,1.30318.54423A3.05011,3.05011,0,0,1,43.851,29.29733" transform="translate(-18.47736 -3.01994)"/><line class="cls-17" x1="41.71411" y1="13.21243" x2="43.58973" y2="14.53318"/><line class="cls-17" x1="43.70462" y1="16.85908" x2="43.70462" y2="14.63156"/><line class="cls-18" x1="41.2147" y1="15.84148" x2="43.44748" y2="14.67646"/><line class="cls-19" x1="2.39641" y1="13.51836" x2="0.64754" y2="14.63623"/><line class="cls-19" x1="0.67131" y1="16.95269" x2="0.625" y2="14.6447"/><line class="cls-20" x1="3.30811" y1="15.99992" x2="1.16981" y2="14.85697"/><line class="cls-21" x1="22.32264" y1="49.72375" x2="22.10125" y2="29.66036"/><line class="cls-22" x1="20.39733" y1="49.20001" x2="22.35624" y2="50.37941"/><line class="cls-22" x1="24.35608" y1="49.11037" x2="22.37484" y2="50.3947"/><line class="cls-23" x1="22.29348" y1="47.7519" x2="22.34306" y2="50.11219"/><text class="cls-24" transform="matrix(0.69962, -0.4446, 0.05511, 0.99848, 24.26235, 47.73422)">Cube</text><text class="cls-25" transform="translate(53.60829 33.28808)">i<tspan class="cls-26" x="5.021" y="0">Cube </tspan><tspan class="cls-27" x="60.86816" y="0">Ser</tspan><tspan class="cls-28" x="92.76855" y="0">v</tspan><tspan class="cls-27" x="103.33691" y="0">er</tspan></text></svg>