<?xml version="1.0" encoding="UTF-8"?><svg id="Profile_Protection" xmlns="http://www.w3.org/2000/svg" viewBox="0 0 2000 2000"><defs><style>.cls-1{fill:#60afbd;}.cls-1,.cls-2,.cls-3,.cls-4{stroke-width:0px;}.cls-2{fill:#292c56;}.cls-3{fill:#dce7ea;}.cls-4{fill:#fff;}</style></defs><path class="cls-2" d="M407.07,1186.59c-7.68,0-15.36-2.93-21.21-8.79l-66.11-66.11c-24.64-24.64-38.21-57.4-38.21-92.25v-138.43c0-16.57,13.43-30,30-30s30,13.43,30,30v138.43c0,18.82,7.33,36.51,20.64,49.82l66.11,66.11c18.96,18.96,5.27,51.21-21.21,51.21Z"/><rect class="cls-4" x="97.63" y="538.86" width="554.26" height="421.09" rx="163.26" ry="163.26"/><path class="cls-2" d="M488.64,963.95h-227.75c-92.23,0-167.26-75.03-167.26-167.26v-94.58c0-92.22,75.03-167.26,167.26-167.26h227.75c92.23,0,167.26,75.03,167.26,167.26v94.58c0,92.22-75.03,167.26-167.26,167.26ZM260.89,542.86c-87.82,0-159.26,71.44-159.26,159.26v94.58c0,87.81,71.44,159.26,159.26,159.26h227.75c87.82,0,159.26-71.44,159.26-159.26v-94.58c0-87.81-71.44-159.26-159.26-159.26h-227.75Z"/><rect class="cls-4" x="494.41" y="1261.85" width="53.6" height="407.5"/><path class="cls-2" d="M548.01,1673.35h-53.6c-2.21,0-4-1.79-4-4v-407.5c0-2.21,1.79-4,4-4h53.6c2.21,0,4,1.79,4,4v407.5c0,2.21-1.79,4-4,4ZM498.41,1665.35h45.6v-399.5h-45.6v399.5Z"/><path class="cls-2" d="M626.98,1294.12h-247.54c-12.87,0-23.3-10.43-23.3-23.3s10.43-23.3,23.3-23.3h247.54c12.87,0,23.3,10.43,23.3,23.3s-10.43,23.3-23.3,23.3Z"/><path class="cls-4" d="M845.72,1261.85H261.39c-34.98,0-63.34-28.36-63.34-63.34s28.36-63.34,63.34-63.34h584.33c34.98,0,63.34,28.36,63.34,63.34s-28.36,63.34-63.34,63.34Z"/><path class="cls-2" d="M845.72,1265.85H261.39c-37.13,0-67.34-30.21-67.34-67.34s30.21-67.34,67.34-67.34h584.33c37.13,0,67.34,30.21,67.34,67.34s-30.21,67.34-67.34,67.34ZM261.39,1139.18c-32.72,0-59.34,26.62-59.34,59.34s26.62,59.34,59.34,59.34h584.33c32.72,0,59.34-26.62,59.34-59.34s-26.62-59.34-59.34-59.34H261.39Z"/><rect class="cls-2" x="472.82" y="1554.63" width="101.58" height="229.44"/><path class="cls-2" d="M203.34,1923.06c-12.15,0-22-9.85-22-22v-25.58c0-27.35,18.44-51.43,44.85-58.56l270.93-73.17c9.65-2.62,19.91-2.79,29.68-.49l316.18,74.21c27.55,6.46,46.8,30.75,46.8,59.05v12.48c0,12.15-9.85,22-22,22s-22-9.85-22-22v-12.48c0-7.77-5.29-14.44-12.85-16.22l-316.18-74.21c-2.68-.63-5.49-.58-8.15.13l-270.94,73.17c-7.25,1.96-12.32,8.57-12.32,16.08v25.58c0,12.15-9.85,22-22,22Z"/><circle class="cls-2" cx="178.25" cy="1876.66" r="67.52"/><path class="cls-3" d="M938.93,52.87c-124.63,176.43-282.94,217.73-384.99,225.38l28.02,234.12c14.84,123.96,78.3,232.75,171.66,304.99,61.3,47.43,120.34,93.11,177.24,137.13,52.08-38.69,105.9-78.69,161.57-120.05,107.63-79.97,182.3-203.64,201.41-347.36l28.62-215.22c-231.86-3.2-383.53-218.99-383.53-218.99Z"/><rect class="cls-4" x="1161.54" y="58.06" width="707.43" height="1003" rx="32.97" ry="32.97"/><path class="cls-2" d="M1836,1065.06h-641.5c-20.38,0-36.96-16.58-36.96-36.97V91.03c0-20.38,16.58-36.97,36.96-36.97h641.5c20.38,0,36.97,16.58,36.97,36.97v937.06c0,20.38-16.59,36.97-36.97,36.97ZM1194.5,62.06c-15.97,0-28.96,12.99-28.96,28.97v937.06c0,15.97,12.99,28.97,28.96,28.97h641.5c15.97,0,28.97-12.99,28.97-28.97V91.03c0-15.97-13-28.97-28.97-28.97h-641.5Z"/><circle class="cls-3" cx="1515.25" cy="291.05" r="138.11"/><circle class="cls-2" cx="1515.28" cy="249.05" r="46.45"/><path class="cls-2" d="M1613.91,387.66c-.21-54.32-44.28-98.31-98.66-98.34-54.38-.04-98.5,43.9-98.78,98.21,54.18,55.46,143.19,55.52,197.44.13Z"/><path class="cls-2" d="M497.52,209.29c-37.95-4.94-69.92-9.11-88.87,9.4-24.25,23.69-10.96,59.6-32.91,78.11-7.63,6.44-18.93,10.26-36.39,9.74-9.27-.27-16.23,1.67-21.61,5.2-25.54,16.77-15.94,58.48-44.25,87.46-21.37,21.87-42.08,9.16-64.5,26.67-18.5,14.45-35.36,47.28-22.73,129.99,90.87,67.11,164.13,79.37,215.39,77.38l274.19-108.44s28.51-147-20.12-171.04c-48.63-24.03-31.3-50.86-27.95-83.84.56-5.47-.28-10.05-2.05-13.88,0,0-4.63-8.94-41.74-19.69-18.39-9.46-48.04-22.08-86.44-27.08Z"/><path class="cls-4" d="M589.29,410.36c39.06-13.21,105.33-27.8,153.96,5.36,35.89,24.48,51.18,74.75,80.28,174.3,12.33,42.17,20.56,77.95,25.88,103.53,59.22-53.33,118.43-106.66,177.64-160,23.37,22.06,46.74,44.11,70.12,66.17-25.63,50.48-163.22,314.23-306.6,305.5-10.47-.64-18.08-1.1-27.63-5.2-93.72-40.25-7.75-271.91-173.65-489.65Z"/><path class="cls-2" d="M790.33,909.21c-10.49-.64-18.77-1.14-28.96-5.52-97.55-41.89-9.12-272.85-175.26-490.9-1.65-2.18-.69-5.34,1.9-6.21,45.41-15.36,109.6-26.82,157.49,5.85,37.8,25.78,53.46,79.31,81.87,176.48,9.36,32,17.59,64.61,24.52,97.03l172.49-155.35c1.55-1.4,3.91-1.37,5.42.06l70.12,66.17c1.29,1.22,1.62,3.14.82,4.72-57.27,112.76-183.41,315.4-310.41,307.68ZM595.84,412.42c161.46,216.55,79.12,445.46,168.68,483.92,8.91,3.83,15.83,4.25,26.29,4.88,132.14,8.06,262.49-224.5,301.43-300.65l-65.25-61.58-174.91,157.53c-2.3,2.07-5.96.85-6.59-2.16-7.17-34.46-15.86-69.19-25.8-103.22-30-102.59-44.69-148.93-78.7-172.12-43.38-29.58-101.88-20.47-145.15-6.61Z"/><path class="cls-4" d="M645.38,883.78h148.85s368.61-13.48,383.02,128c14.41,141.48-55.02,734.92-55.02,734.92h-162.44c5.23-115.76-2.19-208.15-10.02-271.45-12.46-100.78-42.03-214.98-8.32-396.91-62.12,7.62-124.23,15.23-186.35,22.85-71.96,5.06-133.75-39.34-147.38-98.25-14.79-63.97,34.04-115.45,37.66-119.16Z"/><path class="cls-2" d="M1122.22,1750.7h-162.44c-2.28,0-4.1-1.91-4-4.18,4.17-92.34.81-183.44-9.99-270.78-11.89-96.01-41.51-212.74-9.27-392.77l-180.95,22.19c-72.17,5.04-137.24-38.5-151.77-101.32-15.41-66.63,36.49-120.59,38.7-122.86.75-.77,1.79-1.2,2.86-1.2h148.85c.77-.04,93.46-3.22,186.71,10.99,126.72,19.31,194.11,59.88,200.29,120.6,14.29,140.29-54.33,729.85-55.03,735.79-.23,2.02-1.94,3.54-3.97,3.54ZM963.96,1742.7h154.7c5.71-49.45,68.23-596.74,54.6-730.51-13.87-136.18-375.23-124.56-378.89-124.41h-147.27c-7.66,8.31-48.89,56.33-35.49,114.26,13.65,59.03,75.28,99.94,143.2,95.16l186.14-22.83c2.68-.34,4.91,2.05,4.42,4.7-33.39,180.27-3.77,297.57,8.36,395.69,10.7,86.46,14.13,176.58,10.23,267.94Z"/><path class="cls-4" d="M456.05,883.78c-81.2,94.94-11.88,223.63,97.52,223.63h144.22c-13.55,26.42-33.49,69.26-49.78,124.45-44.26,149.99-13.94,234.56-66.72,515.05,50.41.58,100.81,1.17,151.22,1.75,37.25-89.76,86-216.27,133.62-371.39,98.77-321.73,75.68-385.46,49.12-420.52-14.95-19.73-76.53-90.5-269.86-72.98h-189.33Z"/><path class="cls-2" d="M732.49,1752.67l-151.27-1.75c-2.47-.03-4.35-2.28-3.88-4.74,51.42-273.23,23.36-368.2,66.82-515.44,12.09-40.98,27.93-81.09,47.1-119.32h-137.7c-113.7,0-183.72-133.64-100.55-230.23.76-.89,1.87-1.4,3.04-1.4h189.33c176.25-15.99,246.77,39.86,273.05,74.56,28.13,37.14,49.91,103.6-48.49,424.11-38.7,126.07-83.7,251.14-133.75,371.75-.62,1.49-2.08,2.47-3.7,2.47ZM586.08,1742.97l143.75,1.66c49.54-119.6,94.09-243.57,132.46-368.53,105.43-343.43,69.22-391.24,49.76-416.93-61.12-80.7-206.59-76.82-266.32-71.41l-187.79.02c-2.1,2.61-6.88,8.81-12.86,18.06-55.04,85.09,6.71,197.57,108.48,197.57h144.21c2.99,0,4.92,3.17,3.56,5.83-20.28,39.53-36.93,81.17-49.5,123.76-43.67,148-14.22,233.02-65.75,509.97Z"/><path class="cls-2" d="M826.77,1490.9c10.26,0,21.06-.89,32.1-2.64,144.53-22.93,118.77-121.69,215.37-59.53,29.91,19.25,62.61,29.01,97.18,29.01,65.48,0,112.17-34.64,105.62-30.35-9.39-88.28-48.08-403-100.55-475.04-56.12-77.06-343.22-93.18-380.21-94.94l-3.49-45.24-356.46,27.85,15.25,42.98c-15.92,19.44-29.09,39.75-39.17,60.39-47.82,97.85,24.04,212.23,133.28,212.23h90.2c-21.5,90.74-29.66,186.53-21.91,284.82,2.57.47,5.13.94,7.7,1.42l61.69-209.24.09,142.54c.25,1.16,26.22,115.74,143.33,115.74Z"/><path class="cls-1" d="M581.65,1720.77s-20.9,120.85-14.37,223.41h94.07v-99.29s69.25,99.29,69.25,99.29h286.13s12.41-48.34-71.86-86.23c-84.27-37.89-169.85-62.71-185.52-163.31l-177.69,26.13Z"/><path class="cls-1" d="M959.31,1720.77s-20.9,120.85-14.37,223.41h94.07s0-99.29,0-99.29l69.25,99.29h286.13s12.41-48.34-71.86-86.23c-84.27-37.89-169.85-62.71-185.52-163.31l-177.69,26.13Z"/><path class="cls-1" d="M550.25,408.8s177.6-52.1,221.12,20.84c43.53,72.94,101.96,186.66,101.96,186.66l-72.94,45.49c3.79,60.39,7.58,120.78,11.37,181.17-136.47,9.77-272.93,19.54-409.4,29.32-1.65-20.03-3.3-40.07-4.95-60.1l-199.36-51.96s39.21-150.19,60-223.13c10.07-35.36,25.96-61.17,47.6-79.03,20.15-16.64,42.02-23.58,88.47-32,38.59-7,91.56-14.5,156.13-17.25Z"/><path class="cls-4" d="M578.69,401.8s6.98,59.14-49.78,69.44c-56.76,10.29-65.9-55.47-65.9-55.47l115.68-13.97Z"/><path class="cls-2" d="M487.02,466.84c-23.04-16.68-27.79-49.15-27.98-50.52-.31-2.22,1.26-4.25,3.49-4.52l115.66-13.96c2.15-.29,4.2,1.27,4.46,3.5.07.63,6.73,63-53.04,73.84-15.27,2.77-29.98.8-42.6-8.33ZM467.75,419.23c1.97,8.76,8.16,29.71,24,41.15,9.92,7.18,22.18,9.51,36.44,6.92,22-3.99,36.5-16.07,43.1-35.91,3.39-10.19,3.77-19.87,3.66-25.1l-107.2,12.94ZM545.38,405.94h.04-.04Z"/><path class="cls-4" d="M521.84,451.66c-23.11.1-37.65-17.07-37.73-35.81l-.33-73.17c-.09-19.87,15.94-36.05,35.81-36.14,23.11-.1,37.65,17.07,37.73,35.81l.33,73.17c.09,19.87-15.94,36.05-35.81,36.14Z"/><path class="cls-2" d="M520.07,455.67c-22.01,0-39.86-17.78-39.96-39.79l-.33-73.18c-.1-22.04,17.75-40.05,39.79-40.15,25.34-.11,41.66,18.93,41.75,39.79l.33,73.17c.09,21.34-16.37,40.16-41.58,40.16ZM521.84,451.66h.04-.04ZM519.61,310.54c-17.67.08-31.91,14.44-31.83,32.12l.33,73.18c.08,16.66,12.92,31.9,33.71,31.82,17.68-.08,31.91-14.44,31.83-32.12l-.33-73.17c-.07-16.43-12.76-31.92-33.71-31.82Z"/><path class="cls-4" d="M587.78,281.58c-1.51-11.37-7.48-21.68-16.56-28.7-8.82-6.81-21.43-13.88-37.24-15.77-7.22-.86-23.15-2.68-39.8,6.4-.85.46-17.09,9.57-24.92,25.82-3.02,6.27-4.58,13.26-4.81,20.61-6.69-.03-12.66,2.76-15.68,8.05-7.69,13.47,8.14,31.97,25.82,30.76,8.95,16.46,19.31,26.48,31.51,33.35,13.23,7.45,36.05,17.49,58.07,13.84,30.9-5.12,30.27-44.34,23.61-94.37Z"/><path class="cls-2" d="M504.14,365.59c-12.18-6.85-22.6-16.62-31.87-32.79-4.94-.14-10.03-1.59-14.57-4.19-21.1-12.05-19.19-39.31,2.98-42.41.6-6.72,2.27-12.96,4.98-18.6,8.47-17.59,25.88-27.2,26.62-27.6,21.82-11.91,54.72-10.9,81.39,9.72,9.99,7.72,16.41,18.85,18.08,31.33h0c6.23,46.73,9.27,92.85-26.92,98.84-20.62,3.42-42.55-4.09-60.68-14.3ZM488.74,342.6c5.24,6.37,11.74,11.76,19.32,16.02,11.57,6.51,34.14,16.91,55.46,13.38,26.29-4.36,27.25-37.63,20.29-89.89h0c-1.38-10.38-6.72-19.64-15.04-26.06-10.92-8.44-22.78-13.48-35.26-14.96-6.52-.78-21.76-2.6-37.41,5.94-.16.09-15.87,8.76-23.23,24.05-2.71,5.62-4.19,12.02-4.41,19-.07,2.16-1.84,3.88-4,3.88-5.27,0-9.94,2.06-12.21,6.03-6,10.51,7.43,25.78,22.08,24.79,4.61-.3,3.14,4.14,14.41,17.83Z"/><path class="cls-2" d="M506.1,362.1s21.22,37.18,51.45,35.32l-.09-20.72s-30.9,2.36-51.35-14.6Z"/><path class="cls-2" d="M459.55,290.47s70.81,33.4,72.28-37.58c0,0,35.03-2.74,57.23,38.88,0,0,37.3-48.1,15.22-82.47-22.08-34.38-106.76,0-106.76,0,0,0-61.35-3.07-78.32,21.8-16.98,24.87,31.27,85.56,31.27,85.56-7.5-9.83-3.45-23.51,9.08-26.18Z"/><path class="cls-2" d="M800.39,665.79c-2.09,0-3.86-1.63-3.99-3.75-7.81-124.4-54.1-201.86-54.57-202.62-1.14-1.89-.55-4.35,1.34-5.49,1.89-1.15,4.35-.54,5.5,1.34.49.8,12.14,20.11,24.93,55.32,11.76,32.4,26.64,84.89,30.79,150.96.14,2.3-1.68,4.25-4,4.25Z"/><path class="cls-2" d="M406.68,764.21c-2.56,0-4.46-2.37-3.91-4.87.31-1.39,30.54-139.94,9.22-235.18-.48-2.15.87-4.29,3.03-4.78,2.19-.47,4.3.87,4.78,3.03,21.71,97-8.9,237.25-9.21,238.66-.41,1.86-2.07,3.13-3.9,3.13Z"/><path class="cls-2" d="M822.81,764.21c-2.08,0-3.83-1.61-3.98-3.71-1.91-26.49,26.09-67.49,27.29-69.22,1.25-1.81,3.73-2.28,5.56-1.03,1.82,1.25,2.28,3.74,1.02,5.56-.27.4-27.61,40.41-25.9,64.11.17,2.3-1.65,4.29-3.99,4.29Z"/><rect class="cls-2" x="929.51" y="347.59" width="152.96" height="249.48" rx="14.92" ry="14.92" transform="translate(75.61 -135.54) rotate(8.01)"/><path class="cls-4" d="M969.32,417.34c-7.41-1.04-12.57-7.89-11.52-15.3l3.88-27.61c1.04-7.41,7.89-12.57,15.3-11.52s12.57,7.89,11.52,15.3l-3.88,27.61c-1.04,7.41-7.89,12.57-15.3,11.52Z"/><path class="cls-2" d="M971.22,421.48c-10.67,0-18.87-9.42-17.39-19.99l3.89-27.61c1.35-9.61,10.21-16.27,19.82-14.93,9.58,1.35,16.28,10.19,14.93,19.82l-3.88,27.61c-1.23,8.75-8.76,15.1-17.36,15.1ZM975.07,366.78c-4.59,0-8.75,3.37-9.43,8.21l-3.89,27.61c-.74,5.23,2.91,10.04,8.12,10.78h0c5.14.74,10.03-2.83,10.78-8.12l3.88-27.61c.81-5.73-3.63-10.88-9.47-10.88Z"/><path class="cls-4" d="M1082.84,627.11c7.58-10.37,17.51-25.42,26.82-44.8,9.36-19.47,14.62-30.4,16.73-46.01,3.55-26.2-4.38-46.12-14.34-71.1-3.96-9.93-18.56-44.52-34.06-45.93-1.89-.17-2.86.25-3.42.55-10.12,5.48,3.42,46.58,3.42,46.58,0,0-20.91-35.85-32.86-28.08-11.95,7.77,18.52,63.34,18.52,63.34,0,0-20.91-31.74-35.85-29.31s12.55,47.84,12.55,47.84c0,0-18.82-29.58-28.68-21.51s26.29,65.73,26.29,65.73c-.54,12.73-1.08,25.46-1.62,38.18l46.49,24.54Z"/><path class="cls-2" d="M1082.83,631.11c-3.23,0-5.17-3.7-3.23-6.36,10.12-13.85,19.02-28.71,26.45-44.18,9.25-19.23,14.34-29.83,16.37-44.81,3.41-25.17-4.31-44.55-14.09-69.09-10.37-26.01-22.14-42.65-30.71-43.43-.31-.03-.89-.05-1.14.08-3.69,2-1.11,22.32,5.31,41.81,1.49,4.54-4.84,7.38-7.25,3.27-5.57-9.53-17.16-25.3-24.6-27.06-1.42-.33-2.14,0-2.63.32-4.62,3.01,4.84,30.68,19.85,58.06,1.03,1.88.39,4.24-1.44,5.35-1.85,1.1-4.23.57-5.41-1.22-7.54-11.44-22.86-29.03-31.87-27.56-.58.09-.64.24-.75.47-2.39,5.17,6.48,25.49,16.08,41.34,1.13,1.87.55,4.31-1.31,5.47-1.86,1.16-4.31.6-5.48-1.25-5.2-8.17-15.12-20.08-20.86-21-1.02-.17-1.52.12-1.91.44-3.04,4.25,9.62,32.55,27.15,60.51.95,1.52.69.39-1.01,40.48-.09,2.21-2.1,3.92-4.16,3.83-2.21-.09-3.92-1.96-3.83-4.17l1.56-36.94c-14.21-22.8-35.56-61.07-24.77-69.89,3.4-2.78,8.22-3.46,14.4.3-3.43-8.74-5.46-17.37-3.11-22.46,1.27-2.73,3.66-4.51,6.74-5.02,6.45-1.03,13.35,2.64,19.6,7.81-7.3-17.36-12.27-35.74-3.81-41.24,8.67-5.65,18.73,3.31,25.5,11.13-2.58-13.39-3.67-32.06,9.9-30.81,16.34,1.49,30.45,30.98,37.41,48.43,10.21,25.63,18.28,45.87,14.59,73.12-2.2,16.24-7.8,27.89-17.09,47.21-7.64,15.9-16.8,31.19-27.2,45.43-.79,1.07-2,1.64-3.23,1.64Z"/><rect class="cls-4" x="1231.63" y="516.78" width="567.24" height="124.28" rx="25.89" ry="25.89"/><path class="cls-2" d="M1772.98,645.06h-515.45c-16.48,0-29.89-13.41-29.89-29.89v-72.5c0-16.48,13.41-29.89,29.89-29.89h515.45c16.48,0,29.89,13.41,29.89,29.89v72.5c0,16.48-13.41,29.89-29.89,29.89ZM1257.52,520.78c-12.07,0-21.89,9.82-21.89,21.89v72.5c0,12.07,9.82,21.89,21.89,21.89h515.45c12.07,0,21.89-9.82,21.89-21.89v-72.5c0-12.07-9.82-21.89-21.89-21.89h-515.45Z"/><rect class="cls-4" x="1231.63" y="698.07" width="567.24" height="124.28" rx="25.89" ry="25.89"/><path class="cls-2" d="M1772.98,826.36h-515.45c-16.48,0-29.89-13.41-29.89-29.89v-72.5c0-16.48,13.41-29.89,29.89-29.89h515.45c16.48,0,29.89,13.41,29.89,29.89v72.5c0,16.48-13.41,29.89-29.89,29.89ZM1257.52,702.07c-12.07,0-21.89,9.82-21.89,21.89v72.5c0,12.07,9.82,21.89,21.89,21.89h515.45c12.07,0,21.89-9.82,21.89-21.89v-72.5c0-12.07-9.82-21.89-21.89-21.89h-515.45Z"/><circle class="cls-2" cx="1293.33" cy="580.63" r="21.07"/><circle class="cls-2" cx="1386.98" cy="580.63" r="21.07"/><circle class="cls-2" cx="1480.63" cy="580.63" r="21.07"/><circle class="cls-2" cx="1574.28" cy="580.63" r="21.07"/><circle class="cls-2" cx="1293.33" cy="760.22" r="21.07"/><circle class="cls-2" cx="1386.98" cy="760.22" r="21.07"/><circle class="cls-2" cx="1480.63" cy="760.22" r="21.07"/><circle class="cls-2" cx="1574.28" cy="760.22" r="21.07"/><path class="cls-1" d="M1750.13,1108.44h-72.64c-31.81,0-57.7-25.88-57.7-57.69v-137.04c0-31.81,25.88-57.69,57.7-57.69h72.64c31.81,0,57.69,25.88,57.69,57.69v137.04c0,31.81-25.88,57.69-57.69,57.69ZM1677.49,884.02c-16.38,0-29.7,13.32-29.7,29.69v137.04c0,16.37,13.32,29.69,29.7,29.69h72.64c16.37,0,29.69-13.32,29.69-29.69v-137.04c0-16.37-13.32-29.69-29.69-29.69h-72.64Z"/><rect class="cls-1" x="1521.65" y="1009.17" width="384.33" height="344.62" rx="39.2" ry="39.2"/><circle class="cls-2" cx="1713.81" cy="1153.22" r="34.95"/><polygon class="cls-2" points="1749.66 1292.74 1677.96 1292.74 1690.51 1161.29 1737.11 1161.29 1749.66 1292.74"/><path class="cls-2" d="M1016.72,1948.18c-2.35,0-4.2-2.02-3.99-4.36,4.27-47.81-68.8-81.9-69.54-82.24-2.01-.92-2.89-3.29-1.97-5.3.92-2.01,3.3-2.89,5.3-1.97,3.23,1.48,78.95,36.79,74.18,90.22-.19,2.08-1.93,3.64-3.98,3.64Z"/><path class="cls-4" d="M216.91,765.13c-8.48,110.49,32.3,160.61,48.03,177.05,55.61,58.12,144.89,57.78,295.71,57.21,65.8-.25,120.24-5.17,157.75-9.65,11.23-32.92,22.47-65.83,33.7-98.75-118.23-26.27-236.46-52.55-354.7-78.82,2.7-15.16,5.4-30.31,8.11-45.47-62.87-.53-125.74-1.05-188.61-1.58Z"/><path class="cls-2" d="M519.56,1003.5c-126.58,0-206.07-4.79-257.51-58.55-50.7-53-52.54-135.6-49.13-180.12.2-2.6,2.44-3.69,4.02-3.69l188.61,1.58c2.47.02,4.34,2.26,3.9,4.7l-7.43,41.69,350.95,77.99c2.33.52,3.69,2.94,2.92,5.2l-33.7,98.75c-.5,1.46-1.79,2.5-3.31,2.68-76.05,9.07-129.73,9.78-199.32,9.78ZM220.63,769.16c-2.92,43.94,0,120.93,47.2,170.26,54.42,56.88,144.11,56.53,292.8,55.98,51.68-.2,103.75-3.33,154.8-9.33l31.45-92.14-350.33-77.85c-2.09-.46-3.45-2.5-3.07-4.61l7.27-40.8-180.12-1.51Z"/><path class="cls-4" d="M670.84,995.67l47.57-5.93s38.88,15.18,54.42,17.17,39.67-6.41,49.91-8.58c10.24-2.17,38.12,20.74,45.69,8.89,7.57-11.85-38.24-36.15-38.24-36.15,0,0,41.83,32.01,49.39,19.79,7.57-12.22-42.35-42.1-42.35-42.1,0,0,52.2,26.78,54.84,11.2,2.64-15.58-56-38.29-56-38.29,0,0,46.29,14.34,47.49,0,1.2-14.34-98.79-33.46-98.79-33.46,0,0,27.95-8.95,32.66-19.12,4.71-10.17-24.3-7.17-49.39,0-25.1,7.17-42.82,15.93-42.82,15.93l-35.7-7.93-18.68,118.58Z"/><path class="cls-2" d="M823.56,1002.24c-10.36,2.19-34.69,10.76-51.25,8.64-14.66-1.88-48.2-14.64-54.42-17.04l-46.56,5.8c-2.21.29-4.2-1.28-4.46-3.47-.27-2.19,1.28-4.19,3.47-4.46,49.41-6.16,48.06-6.26,49.52-5.68.39.15,38.61,15.02,53.47,16.93,11.12,1.42,27.95-3.12,39.11-6.13,12.65-3.41,12.65-4.55,30.31,3.49,8.29,3.77,19.64,8.94,22.3,4.76.12-.18.36-.56.1-1.55-.86-3.28-5.06-7.59-10.61-12.02-11.8-6.02-23.43-14.68-26.79-17.26-1.65-1.26-2.06-3.58-.94-5.34,1.12-1.75,3.39-2.35,5.24-1.37,3.73,1.98,16.49,8.96,26.83,17.18,6.56,3.34,12.47,5.48,15.89,4.83,1.42-.26,1.79-1,1.46-2.35-2.16-8.88-26.34-26.18-41.07-35-1.85-1.11-2.49-3.48-1.44-5.37,1.04-1.88,3.4-2.6,5.32-1.62,16.09,8.25,41.75,18.37,48.36,15.05.46-.23.62-.45.71-.96,1.25-7.39-26.65-23.49-53.5-33.89-2.01-.78-3.04-3.01-2.33-5.04.71-2.03,2.89-3.15,4.96-2.51,13.82,4.28,35.85,8.57,41.54,4.72.6-.41.74-.75.78-1.23-2.35-6.88-51.31-20.74-95.55-29.2-4.06-.78-4.4-6.47-.47-7.74,10.13-3.25,27.26-10.71,30.23-16.94-3.84-2.08-21.71-1.08-44.64,5.47-24.41,6.98-41.97,15.59-42.14,15.67-1.78.88.27.97-38.34-7.62-2.16-.48-3.52-2.62-3.04-4.77.48-2.16,2.64-3.51,4.77-3.04l34.35,7.63c4.55-2.15,20.59-9.4,42.21-15.57,4.57-1.31,44.95-12.5,53.32-2.7,1.9,2.22,2.19,5.22.8,8.23-3.07,6.64-13.38,12.41-22.08,16.26,9.63,2.05,23.21,5.11,36.66,8.66,46.52,12.31,52.44,19.92,51.91,26.31-.72,8.78-10.49,10.32-19.3,9.98,15.28,8.31,29.44,18.83,27.77,28.65-1.89,11.12-16.62,8.58-27.45,5.41,7.95,6.79,19.86,18.1,14.41,26.93-1.99,3.21-5.73,5.28-11.86,4.48,2.9,4.85,2.61,8.91.68,11.93-10.09,15.82-39.62-9.01-48.23-7.13Z"/><path class="cls-2" d="M325.88,846.4c-3.54,0-5.38-4.34-2.8-6.86,26.98-26.37,72.02-31.15,73.93-31.34,2.27-.2,4.16,1.38,4.38,3.58.22,2.2-1.38,4.16-3.58,4.38-.44.04-44.18,4.72-69.13,29.11-.78.76-1.79,1.14-2.8,1.14Z"/></svg>