<svg xmlns="http://www.w3.org/2000/svg" viewBox="0 0 5000 5000"><defs><style>.cls-1{fill:#fff;}.cls-2{fill:#eaf2f9;}.cls-3{fill:#232f63;}.cls-4{fill:#7badc9;}.cls-5{fill:#6197aa;}.cls-6{fill:#9e2632;}.cls-7{fill:#c1dee8;}.cls-8{fill:#660e17;}.cls-9{fill:#a3cfe2;}.cls-10{fill:#e3f6ff;}.cls-11{fill:#c8e3ed;}.cls-12{fill:#053c52;}.cls-13{fill:#0f1a42;}.cls-14{fill:#bad4e8;}.cls-15{fill:#01567a;}.cls-16{fill:none;}.cls-17{fill:#fccdd3;}.cls-18{fill:#fc9fa8;}.cls-19{fill:#4d7a8e;}.cls-20{fill:#fac2ae;}.cls-21{fill:#f1a080;}.cls-22{fill:#ededed;}.cls-23{fill:#132147;}.cls-24{fill:#192654;}.cls-25{fill:#364777;}.cls-26{fill:#1e2b59;}.cls-27{fill:#0f1b42;}.cls-28{fill:#eaa48f;opacity:0.26;}.cls-29{fill:#78adc4;}.cls-30{fill:#669eb2;}.cls-31{fill:#e6515b;}.cls-32{fill:#8cbdd3;}.cls-33{fill:#83b6cc;}.cls-34{fill:#d3404e;}.cls-35{opacity:0.33;}.cls-36{fill:#c6d2eb;}.cls-37{fill:#f4737f;}.cls-38{fill:#b03e45;}.cls-39{fill:#2d2e75;}.cls-40{fill:#f27b8f;}</style></defs><title>Asset 5</title><g id="Layer_2" data-name="Layer 2"><g id="Layer_1-2" data-name="Layer 1"><rect class="cls-1" width="5000" height="5000"/><path class="cls-2" d="M988.83,3936.18H4114.54s459.05-1427.47-39.23-1726.58c-445.43-267.38-282.33-1059.63-909-968.08S2501.29,1601,1871,1545.1C933.92,1462,358,2198.28,905.15,3215.53,1043.37,3472.52,1054.25,3733.12,988.83,3936.18Z"/><rect class="cls-3" x="2228.09" y="2077.68" width="879.76" height="1241.62"/><rect class="cls-4" x="2207.05" y="2056.64" width="879.76" height="1241.62"/><polygon class="cls-5" points="2207.05 2056.64 3086.81 2056.64 2719.7 3298.26 2207.05 3298.26 2207.05 2056.64"/><rect class="cls-1" x="2331.35" y="2135.15" width="637.84" height="978.03"/><rect class="cls-6" x="2419.67" y="2037.94" width="444.86" height="138.33"/><path class="cls-6" d="M2646.93,1920.89a81.78,81.78,0,1,0,81.78,81.78A81.78,81.78,0,0,0,2646.93,1920.89Zm0,129.21a47.43,47.43,0,1,1,47.43-47.43A47.44,47.44,0,0,1,2646.93,2050.1Z"/><rect class="cls-4" x="2395.13" y="2295.42" width="381.07" height="29.44"/><rect class="cls-7" x="2395.13" y="2379.77" width="504.28" height="29.44"/><rect class="cls-7" x="2395.13" y="2431.17" width="504.28" height="29.44"/><rect class="cls-7" x="2395.13" y="2482.58" width="504.28" height="29.44"/><rect class="cls-7" x="2395.13" y="2533.98" width="504.28" height="29.44"/><rect class="cls-7" x="2395.13" y="2585.38" width="504.28" height="29.44"/><rect class="cls-7" x="2395.13" y="2674.08" width="504.28" height="29.44"/><rect class="cls-7" x="2395.13" y="2728.83" width="504.28" height="29.44"/><rect class="cls-4" x="2705.88" y="2872.28" width="190.26" height="29.44"/><rect class="cls-8" x="2419.67" y="2118.25" width="444.86" height="58.02"/><polygon class="cls-1" points="1121.26 1235.51 1121.26 3274.78 2046.47 3190.46 2046.47 1302.38 1121.26 1235.51"/><path class="cls-9" d="M1100.3,1407.76,2065.71,1487V1333.7s41.4-64.48-159-86.64-806.46-38.49-806.46-38.49Z"/><polygon class="cls-10" points="1135.25 2585.73 2060.46 1672.99 2060.46 3136.03 1135.25 3274.78 1135.25 2585.73"/><polygon class="cls-11" points="1135.25 3007.24 2060.46 2539.1 2060.46 3136.03 1135.25 3274.78 1135.25 3007.24"/><rect class="cls-12" x="1984.13" y="1302.38" width="62.89" height="1911.76"/><rect class="cls-4" x="500" y="3930.6" width="4000" height="18.67"/><ellipse class="cls-13" cx="1035.52" cy="1689.71" rx="20.95" ry="35.92"/><ellipse class="cls-14" cx="1100.3" cy="1659.56" rx="20.95" ry="35.92"/><ellipse class="cls-1" cx="1166.38" cy="1631.97" rx="20.95" ry="35.92"/><path class="cls-12" d="M1003.55,3158.31c1.33,65.61,4.87,131.27,3.39,196.83-1.53,67.58,23,118.29,82.58,151.2l24.92,4.86,10-.08c208.09-22.63,415.07-55,623.9-71.19,67.19-8.56,134.25-18.49,201.62-25.34,80.6-8.2,114.34-35.57,124.61-117.76,6-48.13,1.74-97.55,2.09-146.39l-47.1-14c-8.13,1.79-821,73.06-848.49,75.48-27,7.88-41.51,1.08-40.58-30.46,1.07-35.85-.8-71.79-1.39-107.69-42.43,13.67-53.54-3.09-53.32-45.43,1.39-264.44.29-528.89.18-793.34-.12-318.37,1.53-636.75-1.36-955.1-.64-70.88,24.86-117.53,86.22-147.79-98-18.18-156.18,25.29-162.55,123.91-12.59,195-1.12,390.23-5.89,585.32M1582.7,3356.52c-72.65,4.2-84.36-1.63-87.44-35-3.46-37.52,16.71-54.89,67-58.75,31.37-2.41,62.68-5.72,94-8.72,30.07-2.88,54.46,2.23,55.36,39.7.81,34.23-15.17,52.51-50.33,54.79C1629.94,3350.58,1598.7,3354.84,1582.7,3356.52Zm-548.82-842.33h-9.39V2211.53h9.39Z"/><path class="cls-2" d="M1609.53,3374.49c-72.65,4.2-84.36-1.63-87.44-35-3.46-37.52,16.71-54.89,67-58.75,31.37-2.42,62.67-5.72,94-8.72,30.06-2.89,54.46,2.23,55.36,39.69.81,34.24-15.17,52.52-50.33,54.8C1656.77,3368.54,1625.53,3372.81,1609.53,3374.49Z"/><path class="cls-15" d="M2081.15,3054.24l.81-402.5.74.13-.47-133q.22-117.87.47-235.73l-1.32-.4-1.07-302.51,0,0q.31-230.24.47-460.47c-.23-45.56-.38-91.12-.69-136.68-.74-109.59-45.36-156.74-155-166-68.7-5.84-137.27-13.29-205.84-20.58-9.15-1-18-5.28-26.91-8-126.48-7.59-251.6-27.14-377.23-42.23-48-5.76-96.19-9.49-144.29-14.15-61.36,30.26-86.86,76.91-86.22,147.79,2.89,318.35,1.24,636.73,1.36,955.1.11,264.45,1.21,528.9-.18,793.34,0,4.83.11,9.31.41,13.47v404.87s-10.31,80.51,107.44,56.61l786.48-93.15s86-5.62,93.92-109.3l3.46-157.39q1.89-16.17,3.79-32.33a43.59,43.59,0,0,1-2.91-7.69l.8-36.73C2079.87,3062.53,2080.61,3058.39,2081.15,3054.24ZM1971.3,3142,1181,3211.89s-40.22,12.19-40.24-20.11l-.69-245.14q1.74-213.78,3.48-427.54c.14-5.52.27-11.08.41-16.64l-.93-180.43.24-11.51.18-449.58q-.27-128-.55-256c-.12-96,.1-192-.57-288-.19-27.59,5.44-47.47,39.28-42.52,7.87.05,15.8-.52,23.6.24q241.59,23.72,483.16,47.76c92.26,9.21,184.44,19.2,276.71,28.17,39.08,3.8,63.61,15.59,60.75,63.41-3.28,54.74,1.08,110,3.37,165,3.94,94.35,6.36,188.64-.75,282.94,4.81,81.32,4.24,162.67.93,244,.25,3.25.51,6.49.76,9.74.22.3.46.58.69.87L2028,2642.26h0q-1,67.95-2,135.9c.2,32.49,8.88,65.05-.67,97.48a52,52,0,0,1,0,35.14,812,812,0,0,1,5.46,104.43l-2.58,56.91q-1.18,15.11-2.87,30.21c.37,3,.73,6,1.1,9h0c0,.45.11.9.16,1.35C2026.9,3117.93,2024.24,3137.17,1971.3,3142Z"/><path class="cls-2" d="M1596.69,3356.52c-72.65,4.2-84.36-1.63-87.44-35-3.46-37.52,16.71-54.89,67-58.75,31.37-2.41,62.67-5.72,94-8.72,30.06-2.88,54.46,2.23,55.35,39.7.82,34.23-15.16,52.51-50.33,54.79C1643.92,3350.58,1612.69,3354.84,1596.69,3356.52Z"/><ellipse class="cls-3" cx="1233.09" cy="1353.97" rx="26.09" ry="32.5"/><ellipse class="cls-15" cx="1312.63" cy="1362.52" rx="26.09" ry="32.5"/><ellipse class="cls-1" cx="1390.46" cy="1371.07" rx="26.09" ry="32.5"/><path class="cls-16" d="M4254.38,1267.13q.26,6.36.19,13-1.08,119.37-1.42,238.76.39-119.39,1.42-238.76Q4254.63,1273.49,4254.38,1267.13Z"/><path class="cls-16" d="M4229.11,1182.13c-1.55-2.25-3.2-4.43-4.91-6.58C4225.91,1177.7,4227.56,1179.88,4229.11,1182.13Z"/><path class="cls-16" d="M4252.88,1686.43h0q-.07,154.93.19,309.89Q4252.89,1841.37,4252.88,1686.43Z"/><path class="cls-16" d="M4253.39,3028.58q0,3.59-.08,6.92c.06-2.23.09-4.53.08-6.92Z"/><path class="cls-16" d="M4241.76,1205.22c-1.05-2.46-2.18-4.87-3.36-7.24C4239.58,1200.35,4240.71,1202.76,4241.76,1205.22Z"/><path class="cls-16" d="M4253.2,2235.24q0,148.76-.35,297.51.21-148.76.35-297.51Z"/><path class="cls-16" d="M4247.22,1220.55q-1.56-5.29-3.47-10.34Q4245.66,1215.25,4247.22,1220.55Z"/><path class="cls-16" d="M4254.38,1267.13q-.24-6.36-.81-12.45Q4254.14,1260.77,4254.38,1267.13Z"/><path class="cls-16" d="M4252.69,2731.08q0-49.57,0-99.17Q4252.7,2681.5,4252.69,2731.08Z"/><path class="cls-16" d="M4305.26,2514.45h9.39V2211.79h-9.39Z"/><path class="cls-16" d="M4253,3042c.15-2.07.26-4.21.32-6.45Q4253.21,3038.94,4253,3042Z"/><path class="cls-16" d="M4251.14,1237q-1.06-5.68-2.45-11.11Q4250.09,1231.32,4251.14,1237Z"/><path class="cls-16" d="M4253.57,1254.68q-.57-6.09-1.46-11.91Q4253,1248.59,4253.57,1254.68Z"/><path class="cls-1" d="M3369,1748.56l826.92,815.77q-.18-22.48-.37-45-.21-8.29-.41-16.64l.93-180.44-.24-11.5-.18-449.59q.27-128,.55-256c.08-64.56,0-129.11.17-193.67L3369,1479.39Z"/><path class="cls-9" d="M4157.49,1274.62c-7.87.05-15.8-.53-23.6.24q-241.59,23.72-483.16,47.75c-92.26,9.22-184.44,19.21-276.71,28.17-1.71.17-3.37.36-5,.56v128.05l827.37-67.88q.1-47.17.4-94.37C4197,1289.54,4191.33,1269.66,4157.49,1274.62Zm-208.81,129.22c-14.41,0-26.09-14.55-26.09-32.5s11.68-32.5,26.09-32.5,26.08,14.55,26.08,32.5S3963.09,1403.84,3948.68,1403.84Zm77.83-8.55c-14.41,0-26.09-14.55-26.09-32.5s11.68-32.5,26.09-32.5,26.09,14.55,26.09,32.5S4040.92,1395.29,4026.51,1395.29Zm79.54-8.55c-14.41,0-26.08-14.55-26.08-32.5s11.67-32.51,26.08-32.51,26.09,14.56,26.09,32.51S4120.46,1386.74,4106.05,1386.74Z"/><path class="cls-17" d="M3369,2578l829.89,419.92.14-51q-1.54-191.3-3.11-382.57L3369,1748.56Z"/><path class="cls-18" d="M3369,3142.32l789.1,69.83c.63.19,1.23.32,1.85.49,5.66,1.38,23,4.65,32.29-4,3.24-3.76,5.32-9.2,6.1-16.67l.07-23.64c-.1-8.5-.05-17,.07-25.49l.41-144.92L3369,2578Z"/><path class="cls-19" d="M3369,1748.56V1351.34c-36.14,4.35-58.47,17.12-55.73,62.85,3.28,54.74-1.08,110-3.37,165-3.94,94.34-6.36,188.64.75,282.94-4.81,81.32-4.24,162.67-.93,244-.25,3.25-.51,6.49-.76,9.74-.22.3-.46.57-.69.87l2.91,525.77q1,67.95,2,135.89c-.2,32.5-8.88,65,.67,97.48a52,52,0,0,0,0,35.15,812,812,0,0,0-5.46,104.43l2.58,56.91q1.18,15.11,2.87,30.21l-1.1,9-.16,1.35c-.29,5.25,2.38,24.48,55.32,29.27l1.16.1V1748.56Z"/><path class="cls-14" d="M4252.9,1638.29q0,24.06,0,48.14h0Q4252.9,1662.36,4252.9,1638.29Z"/><path class="cls-19" d="M4199.15,1151.15a147.69,147.69,0,0,1,12.68,10.79q3.93,3.76,7.48,7.74c1.71,1.91,3.32,3.88,4.89,5.87,1.71,2.15,3.36,4.33,4.91,6.58q3,4.32,5.6,8.88c1.31,2.27,2.52,4.6,3.69,7s2.31,4.78,3.36,7.24c.69,1.64,1.36,3.3,2,5q1.91,5,3.47,10.34.78,2.64,1.47,5.36,1.4,5.41,2.45,11.11.52,2.84,1,5.75.89,5.82,1.46,11.91t.81,12.45q.26,6.36.19,13-1.08,119.37-1.42,238.76-.18,59.7-.25,119.39,0,24.06,0,48.14-.07,154.93.19,309.89.14,119.46.13,238.92h0q0,148.76-.35,297.51-.08,49.58-.12,99.16t0,99.17q0,148.76.7,297.5h0c0,2.39,0,4.69-.08,6.92a.28.28,0,0,0,0,.09c-.06,2.24-.17,4.38-.32,6.45h0v404.88s7.89,61.61-69,61c10.24,1.15,20.48,2.31,30.72,3.42l10,.09,24.92-4.86c59.58-32.91,84.11-83.62,82.58-151.21-1.48-65.55,2.06-131.21,3.39-196.83l1.2-1317c-4.77-195.08,6.7-390.35-5.89-585.32-6.37-98.61-64.52-142.08-162.55-123.91a193.8,193.8,0,0,1,26.17,15.42Q4196.89,1149.42,4199.15,1151.15Zm115.5,1363.31h-9.39V2211.79h9.39Z"/><path class="cls-12" d="M3359.06,3410.38c9.25,1.89,19.26,3.37,30.15,4.48,67.37,6.85,134.43,16.77,201.62,25.34q37,2.87,73.9,6.38l-305.67-36.2Z"/><path class="cls-12" d="M3284.42,3363.81a86.68,86.68,0,0,0,28.86,29.58A100.08,100.08,0,0,1,3284.42,3363.81Z"/><path class="cls-12" d="M3264.6,3297.1c.17,1.34.36,2.62.54,3.94l-2.77-126.18C3261.73,3215.78,3259.58,3256.89,3264.6,3297.1Z"/><path class="cls-12" d="M4139.63,3502.83l-5.69-.68Z"/><path class="cls-12" d="M4198.41,3168.31l.07-25.49C4198.36,3151.32,4198.31,3159.81,4198.41,3168.31Z"/><path class="cls-12" d="M4160,3212.64c-.62-.17-1.22-.3-1.85-.49C4158.1,3212.15,4158.78,3212.36,4160,3212.64Z"/><path class="cls-12" d="M4198.34,3192.05v-.1c-.78,7.47-2.86,12.91-6.1,16.67C4195.9,3205.21,4198.34,3200,4198.34,3192.05Z"/><path class="cls-4" d="M3257.18,2652l.81,402.5c.54,4.14,1.28,8.29,2,12.43l.8,36.73a44.7,44.7,0,0,1-2.91,7.69q1.91,16.17,3.79,32.32l.69,31.18,2.77,126.18v0c2.08,27.06,9.5,47.4,19.28,62.74a100.08,100.08,0,0,0,28.86,29.58c23.13,15.47,45.78,17,45.78,17h0l305.67,36.2,469.21,55.57,5.69.68,5.91.7A203,203,0,0,0,4184,3508c76.86.57,69-61,69-61V3042h0q.23-3.11.32-6.45a.28.28,0,0,1,0-.09q.09-3.33.08-6.92h0q-.78-148.74-.7-297.5,0-49.57,0-99.17t.12-99.16q.21-148.76.35-297.51h0q.06-119.46-.13-238.92-.18-155-.19-309.89,0-24.08,0-48.14.08-59.7.25-119.39.39-119.39,1.42-238.76.06-6.65-.19-13t-.81-12.45q-.57-6.09-1.46-11.91-.45-2.91-1-5.75-1.06-5.68-2.45-11.11-.69-2.72-1.47-5.36-1.56-5.29-3.47-10.34c-.63-1.69-1.3-3.35-2-5-1.05-2.46-2.18-4.87-3.36-7.24s-2.38-4.7-3.69-7q-2.61-4.56-5.6-8.88c-1.55-2.25-3.2-4.43-4.91-6.58-1.57-2-3.18-4-4.89-5.87q-3.54-4-7.48-7.74a147.69,147.69,0,0,0-12.68-10.79q-2.26-1.73-4.63-3.39a193.8,193.8,0,0,0-26.17-15.42h0c-48.1,4.66-96.32,8.4-144.29,14.16-125.63,15.09-250.75,34.64-377.23,42.22-9,2.76-17.76,7.06-26.91,8-68.57,7.29-137.14,14.74-205.84,20.58-109.64,9.32-154.26,56.47-155,166.05-.31,45.57-.46,91.13-.69,136.69q.21,230.23.47,460.47l0,0-1.07,302.5-1.32.4q.24,117.87.47,235.73l-.47,133Zm499.26,704.77c-16-1.67-47.24-5.94-78.62-8-35.16-2.28-51.14-20.57-50.33-54.8.9-37.46,25.29-42.58,55.36-39.7,31.32,3,62.63,6.31,94,8.72,50.32,3.87,70.49,21.24,67,58.76C3840.8,3355.16,3829.09,3361,3756.44,3356.78Zm440.33-2039.64q-.33,47.19-.4,94.37c-.15,64.56-.09,129.11-.17,193.67q-.27,128-.55,256l.18,449.59.24,11.5-.93,180.44q.21,8.34.41,16.64.2,22.47.37,45,1.56,191.27,3.11,382.57l-.14,51-.41,144.92-.07,25.49-.07,23.64v.1c0,7.93-2.44,13.16-6.1,16.57-9.33,8.67-26.63,5.4-32.29,4-1.17-.28-1.85-.49-1.85-.49L3369,3142.32l-1.16-.1c-52.94-4.79-55.61-24-55.32-29.27l.16-1.35,1.1-9q-1.71-15.1-2.87-30.21l-2.58-56.91a812,812,0,0,1,5.46-104.43,52,52,0,0,1,0-35.15c-9.55-32.43-.87-65-.67-97.48q-1-68-2-135.89l-2.91-525.77c.23-.3.47-.57.69-.87.25-3.25.51-6.49.76-9.74-3.31-81.35-3.88-162.7.93-244-7.11-94.3-4.69-188.6-.75-282.94,2.29-55,6.65-110.26,3.37-165-2.74-45.73,19.59-58.5,55.73-62.85,1.65-.2,3.31-.39,5-.56,92.27-9,184.45-19,276.71-28.17q241.56-24.13,483.16-47.75c7.8-.77,15.73-.19,23.6-.24C4191.33,1269.66,4197,1289.54,4196.77,1317.14Z"/><path class="cls-2" d="M3843.88,3321.79c3.46-37.52-16.71-54.89-67-58.76-31.37-2.41-62.68-5.71-94-8.72-30.07-2.88-54.46,2.24-55.36,39.7-.81,34.23,15.17,52.52,50.33,54.8,31.38,2,62.62,6.3,78.62,8C3829.09,3361,3840.8,3355.16,3843.88,3321.79Z"/><path class="cls-3" d="M3591.59,1362.79c-14.4,0-26.08,14.55-26.08,32.5s11.68,32.5,26.08,32.5,26.09-14.55,26.09-32.5S3606,1362.79,3591.59,1362.79Z"/><path class="cls-15" d="M3512.05,1371.34c-14.4,0-26.08,14.55-26.08,32.5s11.68,32.5,26.08,32.5,26.09-14.55,26.09-32.5S3526.46,1371.34,3512.05,1371.34Z"/><path class="cls-1" d="M3434.22,1379.89c-14.41,0-26.08,14.56-26.08,32.51s11.67,32.5,26.08,32.5,26.09-14.55,26.09-32.5S3448.63,1379.89,3434.22,1379.89Z"/><path class="cls-20" d="M2727.15,2500.48s49.61-26.08,81.68-23.94,112.05,19.67,112.05,19.67l-7.7,84.24s-49.61-1.28-94.51,6.85-151.39-27.37-145-46.62S2727.15,2500.48,2727.15,2500.48Z"/><path class="cls-21" d="M2768.5,2538s38.94-.54,47.28-5.56c0,0,13.47-.53,12.83,12.3s71,17.36,71,17.36l-2.36,18.33s-82.42,3.76-88.83,6.32S2768.5,2538,2768.5,2538Z"/><path class="cls-1" d="M2875.88,2469.39h-14.55s34,88.69,20.2,117.47l23.74,4.13-5.67-99.27Z"/><path class="cls-22" d="M3408,2184.46l-34.22,40.19,88.68,183.46,68.7-189L3449,2190.44S3411.26,2197.62,3408,2184.46Z"/><path class="cls-23" d="M3576.55,2807.08l22.52,355.6,278,24.6s12.55-176.86,29.86-251.91-11.54-182.82-11.54-182.82Z"/><path class="cls-24" d="M3658.35,2843,3677,3169.58l284.22,25.15s10.16-148.36,27.48-223.41-11.55-182.82-11.55-182.82Z"/><path class="cls-23" d="M3665.83,2938l2,42.37s261.77,5.06,326.39-68.48c0,0-1.23-63.7-7.21-74.39S3665.83,2938,3665.83,2938Z"/><path class="cls-20" d="M3826.3,2975.17s-8.65,38.49,8,59.87c0,0,4.27,13.69,11.54,13.69s52.18.42,61.58-12.41,10.27-67.56,10.27-67.56Z"/><path class="cls-21" d="M3833.79,2988.3s10.37,43.75.54,46.74c0,0,3.74,13.73,11.54,13.69s-6-73.24-6-73.24Z"/><path class="cls-20" d="M3159.93,1726.88s-33.36,61.58-24.37,115.46c0,0,5.13,14.11-38.49,60.94,0,0-17.32,17.32,48.11,21.81,0,0,19.24,7.7,14.75,62.22s79.54,77,184.1,42.34c0,0,35.92-19.89,60.94,106.48,0,0,4.71,39.77-7.27,53.46s94.94,2.56,127.44-100.07c0,0-99.21-69.28-74.41-187.31S3300.2,1673,3300.2,1673Z"/><path class="cls-21" d="M3378.29,1844.36s28,42.88,23.47,80.73,93.6,156.52,93.6,156.52l5.19-17.32s-59.28-41.89-53.69-130.64S3378.29,1844.36,3378.29,1844.36Z"/><path class="cls-25" d="M3161.64,1753.39s-110.33-34.21-24.8-88.1S3266,1649.9,3266,1649.9,3207.83,1745.69,3161.64,1753.39Z"/><path class="cls-3" d="M3193.29,1753.39s-124.87-82.11,21.38-146.26,218.1,35.93,234.35,98.36S3308.75,1661.87,3193.29,1753.39Z"/><path class="cls-26" d="M3254.87,1735.43s-133.43-124.87,98.36-106.91,110.33,321.59,110.33,321.59l-55.32-179.83Z"/><path class="cls-27" d="M3280.53,1756.38s-40.6-67.62,76.56-39.58,139.38,202.89,91.71,249.21c0,0-42.89-127.59-92.86-131.11-11.6-.82-21.42,8.58-22,20.19-.79,16.61-3.89,44.17-15.61,55.89C3318.37,1911,3322.13,1823.86,3280.53,1756.38Z"/><path class="cls-3" d="M3376.75,2190.44s-44.05,75.27-59.45,122.31-47,66.71-47,66.71-40.2,15-158.65,57.31-227.51,15.82-234.78,27.79,29.51,74.41,21.81,113.33c0,0,2.57,9-5.13,9s-2.57,11.12,33.35,8.12,274.12,4.28,369.06-47c0,0,65.43-37.2,110.33-127,0,0,106.92,269.42,118.89,374.62s21,164.22,21,164.22h64.15l-7.7-287.38Z"/><path class="cls-24" d="M3411.08,2201.44l197.09,524-2.74,54.72L3373,2232.35S3390.24,2189.77,3411.08,2201.44Z"/><path class="cls-3" d="M3525.14,2070.4s-62.33,258.54-62.71,302.94,144,311.89,159.36,399.13,30.79,178.32,30.79,178.32,309.19,25.66,359.22-107.76c0,0-39.77-151.39-80.83-230.93,0,0-71.84-180.89-146.25-307.9S3677,2115.6,3637.18,2109.83,3527.28,2099,3525.14,2070.4Z"/><path class="cls-24" d="M3897.19,2565.91l20.53,13.86L3931,2612.1l23.23,294s-27.93,27.62-64.71,27.62S3897.19,2565.91,3897.19,2565.91Z"/><path class="cls-24" d="M3626.92,2365.12s-46.19-100.88,6.41-69.2,206.32,295.57,193,364.57,16.15,278.42,16.15,278.42-24.37,10.23-51.32,10c0,0-31.06-360.6-54-389.86S3626.92,2365.12,3626.92,2365.12Z"/><path class="cls-20" d="M2553.74,2522.29s51.64,3.85,77.3-5.77,35.28-19.78,49.07-18.07,51-7.59,54.53-12.08,15.71,8.56,2.56,18.39-54.52,25.87-43.62,33.89,13.43,10.59,49.59-1.39,93.46,46.62,93.46,46.62.86,20.65-26.94,15.24c0,0-6.41,12.55-28.65,10.41,0,0,.85,15.4-55.17,7.27,0,0-5.1,14.54-18.81,14.54-17.65,0-17.82-6.61-42-9.62-51.64-6.41-120.72-34.36-124.77-44.58C2534.18,2561.74,2553.74,2522.29,2553.74,2522.29Z"/><path class="cls-28" d="M2666.91,2622s58.13-73.56,104.41-82.87c0,0,32,9.92,65.31,44.78,0,0-1.28,21.07-26.94,15.24,0,0-5.56,12.34-28.65,10.41,0,0,3.21,15.4-55.17,7.27,0,0-8.64,22.38-34.79,11.83C2691.08,2628.63,2670.68,2622.46,2666.91,2622Z"/><path class="cls-21" d="M2584.53,2523s-22.74,60.45,22.31,86l-71.7-28,35.1-58Z"/><path class="cls-21" d="M2768.5,2538s-18.51-5.67-43.5,4.81-33.11-8-33.11-8-3.22,3.92,3.19,9.91,20.74,6.24,42.12-1.29,43.9-.58,43.9-.58Z"/><path class="cls-21" d="M2738.25,2555.63l71.55,43.51,3.8.58S2735.29,2537.92,2738.25,2555.63Z"/><path class="cls-21" d="M2781,2609.3s-47.95-39.13-62.37-40.16,60.75,43.72,60.75,43.72Z"/><path class="cls-21" d="M2725.87,2617.3s-33.87-22.22-37.74-20.26,35.91,22.7,35.91,22.7Z"/><path class="cls-3" d="M3603,2291.47s168.28,235.74,170.2,283.64,36.57,413.18,36.57,413.18,76.33,27.23,124.23,0c0,0,7.27-413.06-29.94-476.7S3760,2261.86,3760,2261.86"/><path class="cls-1" d="M3405.33,2140l13.75,54.33s-19.68,16.66-29.94,30.34-29.93,53.89-29.93,53.89S3359.08,2144.27,3405.33,2140Z"/><path class="cls-1" d="M3495.36,2061.72s-12.13,65-76.28,132.59c0,0,43.62,2.12,93.66,62.42,0,0,25.23-118.46,25.23-174.91C3538,2081.82,3494.66,2039.9,3495.36,2061.72Z"/><polygon class="cls-29" points="1855.45 2500.91 1737.58 2896.91 1687.98 2734.41 1771.71 2544.53 1855.45 2500.91"/><path class="cls-30" d="M1837,2562.9S1707.58,2610,1751.55,2850l-16.32,52.7s-79.54-268.13,47.47-372l64.73-2.77Z"/><path class="cls-13" d="M1764.1,1894.94s20.53,20.53-68,142.41-78.5,354.37-78.5,354.37L1828.24,2140l93.66-238.63Z"/><path class="cls-20" d="M2064.3,1662.73s147.54,29.51,105.21,169.35c0,0,6.59,61.45,34,92a9.24,9.24,0,0,1-1.25,13.7,94.73,94.73,0,0,1-32.58,15.35l1.83,38.12a93.11,93.11,0,0,1-4.21,33.47c-17.26,52.66-68.27,38.59-153,40.88,0,0-101.35-11.55-93.65,97.5s-.42,107.77-.42,107.77l-133-120.6s107.77-103.91,79.54-268.13S2064.3,1662.73,2064.3,1662.73Z"/><path class="cls-21" d="M1829.77,2092.28s88.32,158.07,93,102.24l17.46,54.51-69-52-51.31-90.77Z"/><path class="cls-21" d="M2160.77,1725.61s-63.11-6.43-101.6,91.07-105.41,184.54-190.2,159.06l4.18-138.53S2103.27,1570.38,2160.77,1725.61Z"/><path class="cls-4" d="M1806.44,2127.75s-45,21.81-77,46.23c-51.32,39.13-178.33,389.37-178.33,389.37s103.34,86,201.13,60.3c0,0,36.21-62.87,114.47-105.2s166.14-215.54,109-304.7c-15.86-24.77-59.65-83.49-55.34-70.42,43,130.22-49.22,76.19-49.22,76.19Z"/><path class="cls-30" d="M1579.45,2488s17,126.09,197.07,103.09L1763.38,2606s-131.49,26.49-202.66-80.14Z"/><path class="cls-30" d="M1787.19,2137.73s99.21,160.05,103.49,163.47,37.21-61.58,37.21-61.58,5.88-14.76,49.6,40.63c0,0,24,19.67,0-35.5l-49.6-36.17s17.76,29.33-43.2,5.38c-79.68-31.31-88.09-80.82-88.09-80.82Z"/><path class="cls-30" d="M1759.82,2403.41s81.66,75.64,147.21,82.83c0,0,36.68-41.56,38.6-49.9S1759.82,2403.41,1759.82,2403.41Z"/><path class="cls-31" d="M1570.05,2512.93s38.22,104.36,201.66,83.81c0,0-71.76,66.68-43.53,189.84s58.31,373,58.31,373l-447.29,39.59s-70.31-371.5,32.32-511.34S1505.58,2607.47,1570.05,2512.93Z"/><path class="cls-32" d="M1824.46,2101.3s42,87.68,99.25,120.91l-31.32,65.31-105.2-162.94S1828.37,2078,1824.46,2101.3Z"/><path class="cls-32" d="M1923.71,2222.21s43.09,30,60.41,55.69c0,0,.76-52.41-15.66-75.3s-47.71-63.34-47.71-63.34Z"/><path class="cls-33" d="M1798.31,2234.92s203.56,84.67,291.65,137.7,127.44,62.43,127.44,62.43,41.06,12,76.12,13.69,232.64,64.19,232.64,64.19l-6.84,71s-297.64-15.4-400.28-53-359.22-127.44-359.22-127.44S1718.77,2218.67,1798.31,2234.92Z"/><path class="cls-30" d="M2488.37,2501.17s-.55,77.36-83.91,74.58l108.87,7.91-8.12-77.62Z"/><path class="cls-32" d="M2498.58,2504.76s7.38,20.42-2.57,51.21-7.64,26.06-7.64,26.06-9.06,7.3-.23,11.15,56.62,9.3,65.28,3.2,19.57-75.05,17-80.5S2484.79,2487.55,2498.58,2504.76Z"/><path class="cls-3" d="M2153.09,1714.87s-52.22-48.29-123.42,130.68-276.35,94.87-276.35,94.87-29-277.69,216-305.92C2156.88,1612.91,2153.09,1714.87,2153.09,1714.87Z"/><path class="cls-34" d="M1607.37,2560.76s-149.89,111.64-106.27,242.5-62.23,387.2-62.23,387.2l347.62-30.92s-38.25-307.73-63.68-405.35c0,0-11.9-91.57,48.9-157.45C1771.71,2596.74,1677.71,2615.52,1607.37,2560.76Z"/><path class="cls-27" d="M3396,1862.21s23.06,30.16,34,75.71,42.28,57.09,42.28,57.09-13.37-26.58-3.45-70.06S3396,1862.21,3396,1862.21Z"/><path class="cls-4" d="M1606.73,1764.58c-11.54-5.08-25.06-18.14-35.07-29.11V1679c0-14.82-16.22-26.93-36.05-26.93H861.76c-19.82,0-36,12.11-36,26.93v129.78c0,14.81,16.22,26.93,36,26.93h673.85c19.83,0,36.05-12.12,36.05-26.93v-46Z"/><rect class="cls-1" x="873.24" y="1702.76" width="586.27" height="17.51" rx="2"/><rect class="cls-1" x="873.24" y="1736.21" width="586.27" height="17.51" rx="2"/><rect class="cls-1" x="873.24" y="1769.67" width="360.15" height="17.51" rx="2"/><path class="cls-3" d="M3689.46,1746.29c11.54-5.08,25.06-18.14,35.07-29.11v-56.44c0-14.82,16.22-26.93,36-26.93h673.85c19.83,0,36.05,12.11,36.05,26.93v129.78c0,14.81-16.22,26.93-36.05,26.93H3760.57c-19.82,0-36-12.12-36-26.93v-46Z"/><rect class="cls-1" x="3836.68" y="1684.47" width="586.27" height="17.51" rx="2" transform="translate(8259.63 3386.44) rotate(-180)"/><rect class="cls-1" x="3836.68" y="1717.92" width="586.27" height="17.51" rx="2" transform="translate(8259.63 3453.35) rotate(180)"/><rect class="cls-1" x="3836.68" y="1751.38" width="360.15" height="17.51" rx="2" transform="translate(8033.5 3520.26) rotate(180)"/><g class="cls-35"><path class="cls-36" d="M2276.11,1726.3H3084s-47.68-124.91-85.5-109.16-74-31.49-105.24-119.66-58.29-10.5-72.08,33.58-52.9,117.57-87.43,23.1-61.39-207.75-104.14-79.78-75.64-18.89-75.64-18.89-23-218.86-137.31,6.3c-72.35,142.54-81.4-236.18-81.4-236.18s4.94-218.86-59.19-166.9Z"/><rect class="cls-37" x="2360.76" y="1267.07" width="51.39" height="454.1"/><rect class="cls-38" x="2524.64" y="1452.98" width="51.39" height="268.18"/><rect class="cls-37" x="2680.07" y="1267.07" width="51.39" height="454.1"/><rect class="cls-31" x="2843.95" y="1452.98" width="51.39" height="268.18"/><polygon class="cls-39" points="3067.92 1775.5 2213.04 1775.5 2213.04 1211.19 2223.8 1211.19 2223.8 1764.74 3067.92 1764.74 3067.92 1775.5"/><polygon class="cls-39" points="2192.2 1240.34 2246 1240.34 2219.1 1187.41 2192.2 1240.34"/><polygon class="cls-39" points="3056.01 1742.31 3056.01 1796.11 3108.94 1769.21 3056.01 1742.31"/><polygon class="cls-39" points="3001.46 1124.8 3043.47 1158.4 3055.52 1100.27 3001.46 1124.8"/><polygon class="cls-39" points="2580.65 1274.93 2375.97 1121.52 2288.23 1169.12 2284.62 1162.47 2376.63 1112.55 2579.45 1264.57 2686.89 1135.87 2894.61 1264.94 3035.22 1121.17 3040.63 1126.46 2895.77 1274.57 2688.48 1145.77 2580.65 1274.93"/><circle class="cls-37" cx="2375.69" cy="1119.78" r="18.37"/><circle class="cls-37" cx="2687.08" cy="1143.57" r="18.37"/><circle class="cls-37" cx="2893.59" cy="1269.75" r="18.37"/></g><path class="cls-40" d="M1523.93,1963.45c-1.78,47.9-41.3,85.27-88.28,83.46s-83.61-42.13-81.83-90,41.3-85.27,88.27-83.46S1525.7,1915.54,1523.93,1963.45Z"/><path class="cls-1" d="M1433.56,2000.73a3.44,3.44,0,0,1-2.51-1.09l-32.26-34.42a3.57,3.57,0,0,1,.11-5,3.41,3.41,0,0,1,4.9.11l29.53,31.49,44.54-56.7a3.43,3.43,0,0,1,4.88-.55,3.6,3.6,0,0,1,.53,5l-47,59.85a3.43,3.43,0,0,1-2.56,1.32Z"/><path class="cls-3" d="M3955.94,1947.21c-1.78,47.91-41.3,85.28-88.28,83.46s-83.6-42.12-81.82-90,41.29-85.28,88.27-83.46S3957.72,1899.3,3955.94,1947.21Z"/><path class="cls-1" d="M3865.57,1984.49a3.45,3.45,0,0,1-2.51-1.09L3830.8,1949a3.6,3.6,0,0,1,.11-5,3.42,3.42,0,0,1,4.9.12l29.53,31.49,44.54-56.7a3.43,3.43,0,0,1,4.88-.55,3.58,3.58,0,0,1,.54,5l-47,59.86a3.46,3.46,0,0,1-2.56,1.32Z"/></g></g></svg>