<svg xmlns="http://www.w3.org/2000/svg" width="21.769" height="25.397" viewBox="0 0 21.769 25.397"><defs><style>.a{fill:#545151;}</style></defs><path class="a" d="M266.884,138.884a30.709,30.709,0,0,0,6.278-.609,12.366,12.366,0,0,0,4.606-1.8v2.409q0,.978-1.46,1.814a13.166,13.166,0,0,1-3.968,1.325,30.69,30.69,0,0,1-10.913,0,13.167,13.167,0,0,1-3.968-1.325q-1.46-.836-1.46-1.814v-2.409a12.367,12.367,0,0,0,4.606,1.8A30.708,30.708,0,0,0,266.884,138.884Zm0,10.884a30.709,30.709,0,0,0,6.278-.609,12.366,12.366,0,0,0,4.606-1.8v2.409q0,.978-1.46,1.814a13.166,13.166,0,0,1-3.968,1.325,30.69,30.69,0,0,1-10.913,0,13.167,13.167,0,0,1-3.968-1.325q-1.46-.836-1.46-1.814V147.36a12.367,12.367,0,0,0,4.606,1.8A30.708,30.708,0,0,0,266.884,149.769Zm0-5.442a30.709,30.709,0,0,0,6.278-.609,12.366,12.366,0,0,0,4.606-1.8v2.409q0,.978-1.46,1.814a13.166,13.166,0,0,1-3.968,1.325,30.69,30.69,0,0,1-10.913,0,13.167,13.167,0,0,1-3.968-1.325Q256,145.3,256,144.327v-2.409a12.367,12.367,0,0,0,4.606,1.8A30.708,30.708,0,0,0,266.884,144.327Zm0-16.327a28.544,28.544,0,0,1,5.456.489,13.165,13.165,0,0,1,3.968,1.325q1.46.836,1.46,1.814v1.814q0,.978-1.46,1.814a13.167,13.167,0,0,1-3.968,1.325,30.69,30.69,0,0,1-10.913,0,13.167,13.167,0,0,1-3.968-1.325q-1.46-.836-1.46-1.814v-1.814q0-.978,1.46-1.814a13.165,13.165,0,0,1,3.968-1.325A28.544,28.544,0,0,1,266.884,128Z" transform="translate(-256 -128)"/></svg>