<svg xmlns="http://www.w3.org/2000/svg" width="31.39" height="31.39" viewBox="0 0 31.39 31.39"><defs><style>.a{fill:#545151;}</style></defs><path class="a" d="M579.1,819.083a1.6,1.6,0,0,0,3.2,0V816.5h-3.2v2.583Z" transform="translate(-559.802 -789.292)"/><path class="a" d="M579.1,1.6V4.182h3.2V1.6a1.6,1.6,0,1,0-3.2,0Z" transform="translate(-559.802)"/><path class="a" d="M423,1.6V4.182h3.2V1.6a1.6,1.6,0,0,0-3.2,0Z" transform="translate(-408.904)"/><path class="a" d="M423,819.083a1.6,1.6,0,0,0,3.2,0V816.5H423Z" transform="translate(-408.904 -789.292)"/><path class="a" d="M267,1.6V4.182h3.2V1.6a1.6,1.6,0,1,0-3.2,0Z" transform="translate(-258.103)"/><path class="a" d="M267,819.083a1.6,1.6,0,0,0,3.2,0V816.5H267Z" transform="translate(-258.103 -789.292)"/><path class="a" d="M0,580.7a1.6,1.6,0,0,0,1.6,1.6H4.182v-3.2H1.6A1.6,1.6,0,0,0,0,580.7Z" transform="translate(0 -559.802)"/><path class="a" d="M819.083,579.1H816.5v3.2h2.583a1.6,1.6,0,1,0,0-3.2Z" transform="translate(-789.292 -559.802)"/><path class="a" d="M0,424.6a1.6,1.6,0,0,0,1.6,1.6H4.182V423H1.6A1.6,1.6,0,0,0,0,424.6Z" transform="translate(0 -408.904)"/><path class="a" d="M819.083,423H816.5v3.2h2.583a1.6,1.6,0,0,0,0-3.2Z" transform="translate(-789.292 -408.904)"/><path class="a" d="M0,268.6a1.6,1.6,0,0,0,1.6,1.6H4.182V267H1.6A1.6,1.6,0,0,0,0,268.6Z" transform="translate(0 -258.103)"/><path class="a" d="M819.083,267H816.5v3.2h2.583a1.6,1.6,0,1,0,0-3.2Z" transform="translate(-789.292 -258.103)"/><path class="a" d="M171.6,189.888a1.667,1.667,0,0,0,1.666,1.666h16.622a1.667,1.667,0,0,0,1.666-1.666V173.266a1.667,1.667,0,0,0-1.666-1.666H173.266a1.667,1.667,0,0,0-1.666,1.666Z" transform="translate(-165.882 -165.882)"/></svg>