<svg xmlns="http://www.w3.org/2000/svg" xmlns:xlink="http://www.w3.org/1999/xlink" width="32" height="108" viewBox="0 0 32 108"><defs><style>.a{fill:#fff;stroke:#e9eaea;}.b{clip-path:url(#c);}.c{fill:#545151;}.d{filter:url(#a);}</style><filter id="a" x="-6" y="-6" width="50" height="126" filterUnits="userSpaceOnUse"><feOffset dx="3" dy="3" input="SourceAlpha"/><feGaussianBlur stdDeviation="3" result="b"/><feFlood flood-opacity="0.161"/><feComposite operator="in" in2="b"/><feComposite in="SourceGraphic"/></filter><clipPath id="c"><g class="d" transform="matrix(1, 0, 0, 1, 0, 0)"><rect class="a" width="32" height="108" transform="translate(0 87)"/></g></clipPath></defs><g class="b" transform="translate(0 -87)"><path class="c" d="M66.679,83.557v9.452a1.278,1.278,0,0,1-1.26,1.26H57.857V86.708H52.816v7.561H45.255a1.278,1.278,0,0,1-1.26-1.26V83.557A.269.269,0,0,1,44,83.5a.269.269,0,0,0,.01-.059l11.322-9.334,11.322,9.334A.274.274,0,0,1,66.679,83.557ZM71.07,82.2l-1.221,1.457a.67.67,0,0,1-.414.217h-.059a.605.605,0,0,1-.414-.138L55.336,72.373,41.71,83.734a.732.732,0,0,1-.473.138.67.67,0,0,1-.414-.217L39.6,82.2a.639.639,0,0,1-.138-.463.572.572,0,0,1,.217-.423L53.84,69.517a2.443,2.443,0,0,1,2.993,0l4.8,4.017v-3.84a.607.607,0,0,1,.63-.63h3.781a.607.607,0,0,1,.63.63v8.034l4.312,3.584a.572.572,0,0,1,.217.423A.639.639,0,0,1,71.07,82.2Z" transform="translate(-39.463 59.343)"/></g></svg>