<svg id="Layer_1" data-name="Layer 1" xmlns="http://www.w3.org/2000/svg" viewBox="0 0 34.909 34.98893">
  <defs>
    <style>
      .cls-1 {
        fill: #231f20;
        stroke: #231f20;
        stroke-width: 0.4px;
      }
    </style>
  </defs>
  <title>intelligence</title>
  <g>
    <path class="cls-1" d="M17.457,3.305l.376-.653L13.633.231l-8.8,5.083v4.733L.2,12.72V22.886l4.629,2.673v4.116l8.8,5.083,4.577-2.648V20.261l-.011-2.763.015-2.21V2.87l-.377-.217-.376.653h-.754v11.97l-.015,2.218.015,2.78V31.241l-3.07,1.777-7.3-4.213V24.688L1.707,22.016V13.59l4.628-2.672V6.184l7.3-4.214L17.08,3.958l.376-.653h.001Z" transform="translate(0 -0.00008)"/>
    <path class="cls-1" d="M5.218,11.141l2.558,1.413.729-1.319L5.947,9.827" transform="translate(0 -0.00008)"/>
    <circle class="cls-1" cx="8.08075" cy="11.86491" r="1.13293"/>
    <path class="cls-1" d="M7.459,12.987a1.284,1.284,0,1,1,1.74543-.50078L9.204,12.487A1.285,1.285,0,0,1,7.459,12.987Zm1.1-1.983a.982.982,0,1,0,.385,1.335A.982.982,0,0,0,8.559,11.004Z" transform="translate(0 -0.00008)"/>
    <path class="cls-1" d="M5.907,25.802,8.43,24.593l-.651-1.359-2.523,1.21" transform="translate(0 -0.00008)"/>
    <circle class="cls-1" cx="8.04727" cy="23.9433" r="1.133"/>
    <path class="cls-1" d="M8.602,25.096a1.284,1.284,0,1,1,.59893-1.71423L9.202,23.384A1.285,1.285,0,0,1,8.602,25.096Zm-.979-2.044a.982.982,0,1,0,1.31.461v0A.983.983,0,0,0,7.623,23.052Z" transform="translate(0 -0.00008)"/>
    <path class="cls-1" d="M10.767,8.427l1.209.932v3.805L8.685,15.375V20.89l3.288,1.493v3.924l-1.356,1.3,1.046,1.083,1.82-1.744V21.411L10.192,19.92V16.178l3.292-2.211V8.617l-1.8-1.384Z" transform="translate(0 -0.00008)"/>
    <circle class="cls-1" cx="11.27805" cy="7.86827" r="1.133"/>
    <path class="cls-1" d="M10.494,8.886a1.284,1.284,0,1,0-.23228-1.80093L10.261,7.086A1.285,1.285,0,0,0,10.494,8.886Zm1.384-1.795a.982.982,0,1,1-1.378.178A.982.982,0,0,1,11.878,7.091Z" transform="translate(0 -0.00008)"/>
    <circle class="cls-1" cx="11.18806" cy="28.1059" r="1.13308"/>
    <path class="cls-1" d="M10.3,27.178a1.284,1.284,0,1,1-.03858,1.81543L10.261,28.993A1.285,1.285,0,0,1,10.3,27.178Zm1.568,1.636a.982.982,0,1,0-1.389-.03A.982.982,0,0,0,11.868,28.814Z" transform="translate(0 -0.00008)"/>
    <path class="cls-1" d="M.954,18.793H3.848V17.286H.954" transform="translate(0 -0.00008)"/>
    <circle class="cls-1" cx="3.783" cy="18.03891" r="1.133"/>
    <path class="cls-1" d="M3.783,19.325a1.284,1.284,0,1,1,1.284-1.284A1.284,1.284,0,0,1,3.783,19.325Zm0-2.266a.982.982,0,1,0,.982.982h0A.983.983,0,0,0,3.783,17.059Z" transform="translate(0 -0.00008)"/>
    <path class="cls-1" d="M14.516,18.793H17.41V17.286H14.516" transform="translate(0 -0.00008)"/>
    <circle class="cls-1" cx="14.58" cy="18.03891" r="1.133"/>
    <path class="cls-1" d="M14.581,19.325a1.284,1.284,0,1,0-1.284-1.284A1.284,1.284,0,0,0,14.581,19.325Zm0-2.266a.982.982,0,1,1-.982.982h0A.983.983,0,0,1,14.581,17.059Z" transform="translate(0 -0.00008)"/>
    <path class="cls-1" d="M17.457,3.305l.376.653L21.28,1.971l7.3,4.214v4.733l4.629,2.672v8.426l-4.631,2.672v4.116l-7.3,4.213-3.069-1.776V20.268l.015-2.777-.015-2.216V3.305h-.754l.376.653-.376-.653h-.754V15.286l.015,2.21-.015,2.769V32.11l4.577,2.648,8.8-5.083V25.558l4.631-2.672V12.72L30.08,10.047V5.314L21.28.231,16.703,2.87v.435Z" transform="translate(0 -0.00008)"/>
    <path class="cls-1" d="M28.967,9.827l-2.556,1.408.729,1.319,2.556-1.413" transform="translate(0 -0.00008)"/>
    <circle class="cls-1" cx="26.83075" cy="11.86392" r="1.13293"/>
    <path class="cls-1" d="M26.211,10.74a1.284,1.284,0,1,1-.49957,1.74578L25.711,12.485A1.285,1.285,0,0,1,26.211,10.74Zm1.1,1.983a.982.982,0,1,0-1.335-.385A.982.982,0,0,0,27.311,12.723Z" transform="translate(0 -0.00008)"/>
    <path class="cls-1" d="M29.657,24.444l-2.523-1.209-.651,1.359,2.523,1.209" transform="translate(0 -0.00008)"/>
    <circle class="cls-1" cx="26.86627" cy="23.93953" r="1.133"/>
    <path class="cls-1" d="M27.421,22.785a1.284,1.284,0,1,1-1.71308.60224L25.709,23.385A1.285,1.285,0,0,1,27.421,22.785Zm-.979,2.044a.982.982,0,1,0-.462-1.31A.982.982,0,0,0,26.442,24.829Z" transform="translate(0 -0.00008)"/>
    <path class="cls-1" d="M23.226,7.233l-1.8,1.384v5.349l3.292,2.211V19.92l-3.292,1.491V26.95l1.82,1.744,1.043-1.088-1.356-1.3V22.383l3.295-1.493V15.375l-3.291-2.211V9.359l1.209-.932Z" transform="translate(0 -0.00008)"/>
    <circle class="cls-1" cx="23.63505" cy="7.86856" r="1.133"/>
    <path class="cls-1" d="M22.852,6.851a1.284,1.284,0,1,0,1.80072.23393L24.652,7.084A1.285,1.285,0,0,0,22.852,6.851Zm1.383,1.795a.982.982,0,1,1,.178-1.378A.982.982,0,0,1,24.235,8.646Z" transform="translate(0 -0.00008)"/>
    <circle class="cls-1" cx="23.72606" cy="28.10493" r="1.13308"/>
    <path class="cls-1" d="M22.837,29.028a1.284,1.284,0,1,1,1.81542-.03944L24.652,28.989A1.285,1.285,0,0,1,22.837,29.028Zm1.568-1.636a.982.982,0,1,0,.03,1.389A.982.982,0,0,0,24.405,27.392Z" transform="translate(0 -0.00008)"/>
    <path class="cls-1" d="M33.961,17.286H31.067v1.507h2.894" transform="translate(0 -0.00008)"/>
    <circle class="cls-1" cx="31.131" cy="18.03891" r="1.133"/>
    <path class="cls-1" d="M31.131,16.756a1.284,1.284,0,1,1-1.284,1.284h0A1.285,1.285,0,0,1,31.131,16.756Zm0,2.266a.982.982,0,1,0-.982-.982A.982.982,0,0,0,31.131,19.022Z" transform="translate(0 -0.00008)"/>
    <path class="cls-1" d="M20.398,17.286H17.504v1.507h2.894" transform="translate(0 -0.00008)"/>
    <circle class="cls-1" cx="20.333" cy="18.03891" r="1.133"/>
    <path class="cls-1" d="M20.334,16.756a1.2855,1.2855,0,1,0,.003,0Zm0,2.266a.982.982,0,1,1,.982-.982h0A.983.983,0,0,1,20.334,19.022Z" transform="translate(0 -0.00008)"/>
  </g>
</svg>
