<svg id="Layer_1" data-name="Layer 1" xmlns="http://www.w3.org/2000/svg" viewBox="0 0 30.224 33.95052">
  <defs>
    <style>
      .cls-1 {
        fill: #231f20;
        stroke: #231f20;
        stroke-width: 0.5px;
      }
    </style>
  </defs>
  <title>integration</title>
  <path class="cls-1" d="M29.956,7.797V7.77a1.06476,1.06476,0,0,0-.024-.111.031.031,0,0,0-.006-.022.92.92,0,0,0-.044-.122l-.013-.026c-.004-.009-.019-.039-.029-.059a.14387.14387,0,0,0-.021-.031l-.02-.033a1.07706,1.07706,0,0,0-.068-.094l-.007-.009a1.12892,1.12892,0,0,0-.092-.1l-.021-.017a.97023.97023,0,0,0-.089-.069l-.02-.014a.92432.92432,0,0,0-.115-.065h-.008L15.558.36a1.039,1.039,0,0,0-.9,0L.835,6.997a1.039,1.039,0,0,0-.589.937V25.006a1.039,1.039,0,0,0,.535.909l13.824,7.663h0a.98582.98582,0,0,0,.114.054l.02.007a.787.787,0,0,0,.1.031l.031.008c.03.007.06.013.091.018l.031.005a.9633.9633,0,0,0,.121.007,1.193,1.193,0,0,0,.121-.007l.031-.005a.88809.88809,0,0,0,.091-.018l.032-.008c.032-.009.064-.02.1-.031l.02-.007a1.21079,1.21079,0,0,0,.114-.054h0l13.813-7.663a1.04,1.04,0,0,0,.535-.909V7.931A1.30046,1.30046,0,0,0,29.956,7.797Zm-2.066,16.6L16.147,30.906V27.244a1.039,1.039,0,1,0-2.078,0v3.662L2.328,24.397V9.619a5.97,5.97,0,0,1,3.189,1.662l2.096,2.316a5.22508,5.22508,0,0,0-.921,1.534,3.99,3.99,0,0,0,.4,3.035l6.922-4.011a3.99,3.99,0,0,0-2.429-1.858,5.46616,5.46616,0,0,0-2.161.063l-.159.1L6.925,9.872a7.99009,7.99009,0,0,0-3.2-1.956L15.108,2.448,26.666,7.997l-7.531,4.179a1.04069,1.04069,0,0,0,1.008,1.821l7.747-4.3v6.2h-.063a6.186,6.186,0,0,1-6.179,6.179,6.123,6.123,0,0,1-3.294-.961,3.083,3.083,0,0,0-.7-3.284l-.791.791-1.534-1.534h0a.514.514,0,0,0-.726.727l1.532,1.532-1.332,1.331-1.58-1.581h0a.51407.51407,0,0,0-.727.727l1.58,1.58-.791.791a3.085,3.085,0,0,0,3.719.495,8.217,8.217,0,0,0,10.887-1.431Z" transform="translate(0.004 -0.00749)"/>
</svg>
