<svg xmlns="http://www.w3.org/2000/svg" width="29.866" height="25.272" viewBox="0 0 29.866 25.272"><defs><style>.a{fill:#545151;}</style></defs><path class="a" d="M205.784,272.082v6.892a2.329,2.329,0,0,1-2.3,2.3H194.3a2.329,2.329,0,0,1-2.3-2.3v-6.892a2.329,2.329,0,0,1,2.3-2.3h9.19a2.329,2.329,0,0,1,2.3,2.3Zm0-13.784v6.892a2.329,2.329,0,0,1-2.3,2.3H194.3a2.329,2.329,0,0,1-2.3-2.3V258.3a2.329,2.329,0,0,1,2.3-2.3h9.19a2.329,2.329,0,0,1,2.3,2.3Zm16.082,13.784v6.892a2.329,2.329,0,0,1-2.3,2.3h-9.19a2.329,2.329,0,0,1-2.3-2.3v-6.892a2.329,2.329,0,0,1,2.3-2.3h9.19a2.329,2.329,0,0,1,2.3,2.3Zm0-13.784v6.892a2.329,2.329,0,0,1-2.3,2.3h-9.19a2.329,2.329,0,0,1-2.3-2.3V258.3a2.329,2.329,0,0,1,2.3-2.3h9.19a2.329,2.329,0,0,1,2.3,2.3Z" transform="translate(-192 -256)"/></svg>