<svg width="18" height="22" viewBox="0 0 18 22" fill="none" xmlns="http://www.w3.org/2000/svg">
<path d="M13.5 10.6562V11.8594C13.5 12.143 13.2469 12.375 12.9375 12.375H5.0625C4.75313 12.375 4.5 12.143 4.5 11.8594V10.6562C4.5 10.3727 4.75313 10.1406 5.0625 10.1406H12.9375C13.2469 10.1406 13.5 10.3727 13.5 10.6562ZM12.9375 13.75H5.0625C4.75313 13.75 4.5 13.982 4.5 14.2656V15.4688C4.5 15.7523 4.75313 15.9844 5.0625 15.9844H12.9375C13.2469 15.9844 13.5 15.7523 13.5 15.4688V14.2656C13.5 13.982 13.2469 13.75 12.9375 13.75ZM18 5.66758V19.9375C18 21.0762 16.9922 22 15.75 22H2.25C1.00781 22 0 21.0762 0 19.9375V2.0625C0 0.923828 1.00781 0 2.25 0H11.8172C12.4125 0 12.9844 0.219141 13.4062 0.605859L17.3391 4.21094C17.7609 4.59336 18 5.12187 18 5.66758ZM12 2.23008V5.5H15.5672L12 2.23008ZM15.75 19.9375V7.5625H10.875C10.2516 7.5625 9.75 7.10273 9.75 6.53125V2.0625H2.25V19.9375H15.75Z" fill="black"/>
</svg>
