<svg xmlns="http://www.w3.org/2000/svg" width="39.811" height="32.785" viewBox="0 0 39.811 32.785"><defs><style>.a{fill:#545151;}</style></defs><path class="a" d="M11.709,29.858l7.025-3.513V20.6l-7.025,3Zm-1.171-8.306,7.391-3.165-7.391-3.165L3.147,18.387Zm19.905,8.306,7.025-3.513V20.6l-7.025,3Zm-1.171-8.306,7.391-3.165-7.391-3.165-7.391,3.165Zm-8.2-5.361L28.1,13.173V8.306l-7.025,3ZM19.905,9.257,27.973,5.8,19.905,2.342,11.837,5.8Zm19.905,9.477v7.611a2.3,2.3,0,0,1-.348,1.226,2.238,2.238,0,0,1-.951.86l-8.2,4.1a2.251,2.251,0,0,1-2.086,0l-8.2-4.1a1.2,1.2,0,0,1-.128-.073.393.393,0,0,1-.128.073l-8.2,4.1a2.251,2.251,0,0,1-2.086,0l-8.2-4.1a2.238,2.238,0,0,1-.951-.86A2.3,2.3,0,0,1,0,26.345V18.734a2.249,2.249,0,0,1,.393-1.281,2.45,2.45,0,0,1,1.034-.878l7.94-3.4V5.854a2.249,2.249,0,0,1,.393-1.281A2.45,2.45,0,0,1,10.794,3.7l8.2-3.513a2.378,2.378,0,0,1,1.83,0l8.2,3.513a2.45,2.45,0,0,1,1.034.878,2.249,2.249,0,0,1,.393,1.281v7.318l7.94,3.4a2.369,2.369,0,0,1,1.043.878A2.287,2.287,0,0,1,39.811,18.734Z"/></svg>