<svg xmlns="http://www.w3.org/2000/svg" width="33.39" height="28.62" viewBox="0 0 33.39 28.62"><defs><style>.a{fill:#545151;}</style></defs><path class="a" d="M31.6,60.406H29.813V56.829a2.417,2.417,0,0,0-2.385-2.385h-9.54V50.866h1.789a1.781,1.781,0,0,0,1.789-1.789V43.115a1.782,1.782,0,0,0-1.789-1.789H13.714a1.782,1.782,0,0,0-1.789,1.789v5.963a1.781,1.781,0,0,0,1.789,1.789H15.5v3.578H5.962a2.294,2.294,0,0,0-1.677.708,2.292,2.292,0,0,0-.708,1.677v3.578H1.789a1.724,1.724,0,0,0-1.267.521A1.726,1.726,0,0,0,0,62.195v5.963a1.726,1.726,0,0,0,.522,1.267,1.725,1.725,0,0,0,1.267.521H7.751A1.781,1.781,0,0,0,9.54,68.158V62.195a1.781,1.781,0,0,0-1.789-1.789H5.963V56.829H15.5v3.578H13.714a1.781,1.781,0,0,0-1.789,1.789v5.963a1.781,1.781,0,0,0,1.789,1.789h5.962a1.781,1.781,0,0,0,1.789-1.789V62.195a1.781,1.781,0,0,0-1.789-1.789H17.888V56.829h9.54v3.578H25.639a1.781,1.781,0,0,0-1.789,1.789v5.963a1.781,1.781,0,0,0,1.789,1.789H31.6a1.781,1.781,0,0,0,1.789-1.789V62.195A1.781,1.781,0,0,0,31.6,60.406ZM7.12,61.825a1,1,0,0,1,1,1v4.809a1,1,0,0,1-1,1H2.31a1,1,0,0,1-1-1V62.82a1,1,0,0,1,1-1Zm11.98,0a1,1,0,0,1,1,1v4.809a1,1,0,0,1-1,1H14.29a1,1,0,0,1-1-1V62.82a1,1,0,0,1,1-1ZM14.29,49.462a1,1,0,0,1-1-1V43.658a1,1,0,0,1,1-1H19.1a1,1,0,0,1,1,1v4.809a1,1,0,0,1-1,1ZM32.075,67.629a1,1,0,0,1-.995,1H26.27a1,1,0,0,1-1-1V62.82a1,1,0,0,1,1-1H31.08a1,1,0,0,1,.995,1Z" transform="translate(0 -41.326)"/></svg>