<?xml version="1.0" encoding="utf-8"?>
<!-- Generator: Adobe Illustrator 23.0.6, SVG Export Plug-In . SVG Version: 6.00 Build 0)  -->
<svg version="1.1" id="Layer_1" xmlns="http://www.w3.org/2000/svg" xmlns:xlink="http://www.w3.org/1999/xlink" x="0px" y="0px"
	 viewBox="0 0 26.7 29.5" style="enable-background:new 0 0 26.7 29.5;" xml:space="preserve">
<style type="text/css">
	.st0{fill:#231F20;stroke:#231F20;}
</style>
<path class="st0" d="M25.7,4.5c-0.1-0.4-0.3-0.7-0.7-0.8L13.6,0.5c-0.2,0-0.3,0-0.5,0L1.6,3.7C1.3,3.8,1,4.1,1,4.5
	C0.9,5-0.6,16.2,3.3,21.9c2.4,3.4,5.9,5.9,9.8,7.1c0.1,0,0.3,0,0.4,0c4-1.2,7.5-3.7,9.8-7.1C27.3,16.2,25.8,5,25.7,4.5z M21.7,20.7
	c-2,2.9-5,5.1-8.4,6.1v-12H2.9c-0.3-3-0.3-6.1,0-9.2l10.3-2.9v12h10.4C23.5,16.9,22.8,18.9,21.7,20.7z"/>
</svg>
