<svg xmlns="http://www.w3.org/2000/svg" width="27.284" height="22.238" viewBox="0 0 27.284 22.238"><defs><style>.a{fill:#545151;}</style></defs><path class="a" d="M1.949,148.216H17.54v-2.022H1.949Zm0-8.086H17.54v-2.022H1.949Zm23.873,7.076a1.49,1.49,0,0,0-.426-1.074,1.433,1.433,0,0,0-2.071,0,1.566,1.566,0,0,0,0,2.148,1.433,1.433,0,0,0,2.071,0A1.49,1.49,0,0,0,25.822,147.205ZM1.949,132.043H17.54v-2.022H1.949Zm23.873,7.076a1.49,1.49,0,0,0-.426-1.074,1.433,1.433,0,0,0-2.071,0,1.566,1.566,0,0,0,0,2.148,1.433,1.433,0,0,0,2.071,0A1.49,1.49,0,0,0,25.822,139.119Zm0-8.086a1.49,1.49,0,0,0-.426-1.074,1.433,1.433,0,0,0-2.071,0,1.566,1.566,0,0,0,0,2.148,1.433,1.433,0,0,0,2.071,0A1.49,1.49,0,0,0,25.822,131.032Zm1.462,13.14v6.065H0v-6.065Zm0-8.086v6.065H0v-6.065Zm0-8.086v6.065H0V128Z" transform="translate(0 -128)"/></svg>