<svg width="68" height="68" viewBox="0 0 68 68" fill="none" xmlns="http://www.w3.org/2000/svg">
<circle cx="34" cy="34" r="34" fill="#F8FFFC"/>
<circle cx="34.5" cy="34.5" r="26.5" fill="#EAFFF4"/>
<path d="M32.0247 40.5788L26.0459 34.5986L28.0384 32.6062L32.0247 36.5911L39.9945 28.6199L41.9884 30.6137L32.0247 40.5788Z" fill="#14B884"/>
<path fill-rule="evenodd" clip-rule="evenodd" d="M19 34.5C19 25.9398 25.9398 19 34.5 19C43.0602 19 50 25.9398 50 34.5C50 43.0602 43.0602 50 34.5 50C25.9398 50 19 43.0602 19 34.5ZM34.5 47.1818C32.8346 47.1818 31.1855 46.8538 29.6469 46.2165C28.1082 45.5792 26.7102 44.645 25.5326 43.4674C24.355 42.2898 23.4208 40.8918 22.7835 39.3531C22.1462 37.8145 21.8182 36.1654 21.8182 34.5C21.8182 32.8346 22.1462 31.1855 22.7835 29.6469C23.4208 28.1082 24.355 26.7102 25.5326 25.5326C26.7102 24.355 28.1082 23.4208 29.6469 22.7835C31.1855 22.1462 32.8346 21.8182 34.5 21.8182C37.8634 21.8182 41.0891 23.1543 43.4674 25.5326C45.8457 27.9109 47.1818 31.1366 47.1818 34.5C47.1818 37.8634 45.8457 41.0891 43.4674 43.4674C41.0891 45.8457 37.8634 47.1818 34.5 47.1818Z" fill="#14B884"/>
</svg>
