<svg xmlns="http://www.w3.org/2000/svg" width="29.866" height="25.408" viewBox="0 0 29.866 25.408"><defs><style>.a{fill:#545151;stroke:#646262;}</style></defs><path class="a" d="M70.81,261.155a2.048,2.048,0,0,0-.57-1.458,1.868,1.868,0,0,0-2.751,0,2.15,2.15,0,0,0,0,2.916,1.868,1.868,0,0,0,2.751,0A2.048,2.048,0,0,0,70.81,261.155Zm16.219,9.28a2.035,2.035,0,0,1-.562,1.45L79,279.812a1.891,1.891,0,0,1-1.383.6,1.81,1.81,0,0,1-1.368-.6L65.383,268.276a4.843,4.843,0,0,1-.98-1.627,5.227,5.227,0,0,1-.4-1.885v-6.7a2.042,2.042,0,0,1,.578-1.45A1.82,1.82,0,0,1,65.946,256h6.324a4.472,4.472,0,0,1,1.779.427,4.688,4.688,0,0,1,1.55,1.039l10.869,11.5A2.129,2.129,0,0,1,87.029,270.435Zm5.837,0a2.035,2.035,0,0,1-.562,1.45l-7.464,7.926a1.891,1.891,0,0,1-1.383.6,1.626,1.626,0,0,1-.9-.226,4.387,4.387,0,0,1-.806-.725l7.144-7.572a2.035,2.035,0,0,0,.562-1.45,2.129,2.129,0,0,0-.562-1.466l-10.869-11.5a4.688,4.688,0,0,0-1.55-1.039A4.472,4.472,0,0,0,74.7,256h3.4a4.472,4.472,0,0,1,1.779.427,4.688,4.688,0,0,1,1.55,1.039l10.869,11.5A2.129,2.129,0,0,1,92.866,270.435Z" transform="translate(-63.5 -255.5)"/></svg>