<svg id="Layer_1" data-name="Layer 1" xmlns="http://www.w3.org/2000/svg" viewBox="0 0 81 78">
  <title>tree-view-v1</title>
  <path d="M50.80435,56.28261h32a4.01177,4.01177,0,0,0,4-4v-15a4.01177,4.01177,0,0,0-4-4h-32a4.01176,4.01176,0,0,0-4,4v6h-20v-13h15a4.01176,4.01176,0,0,0,4-4v-15a4.01176,4.01176,0,0,0-4-4h-32a4.01176,4.01176,0,0,0-4,4v15a4.01176,4.01176,0,0,0,4,4h14v43.5a1.49884,1.49884,0,0,0,1.5,1.5h21.5v6a4.01176,4.01176,0,0,0,4,4h32a4.01177,4.01177,0,0,0,4-4v-15a4.01177,4.01177,0,0,0-4-4h-32a4.01176,4.01176,0,0,0-4,4v6h-20v-26h20v6A4.01176,4.01176,0,0,0,50.80435,56.28261Zm-42-30v-15a1.01347,1.01347,0,0,1,1-1h32a1.01347,1.01347,0,0,1,1,1v15a1.01347,1.01347,0,0,1-1,1h-32A1.01347,1.01347,0,0,1,8.80435,26.28261Zm41,40a1.01347,1.01347,0,0,1,1-1h32a1.01347,1.01347,0,0,1,1,1v15a1.01347,1.01347,0,0,1-1,1h-32a1.01347,1.01347,0,0,1-1-1Zm0-29a1.01347,1.01347,0,0,1,1-1h32a1.01347,1.01347,0,0,1,1,1v15a1.01347,1.01347,0,0,1-1,1h-32a1.01347,1.01347,0,0,1-1-1Z" transform="translate(-5.80435 -7.28261)"/>
</svg>
