<?xml version="1.0" encoding="utf-8"?>
<!-- Generator: Adobe Illustrator 23.0.6, SVG Export Plug-In . SVG Version: 6.00 Build 0)  -->
<svg version="1.1" id="Layer_1" xmlns="http://www.w3.org/2000/svg" xmlns:xlink="http://www.w3.org/1999/xlink" x="0px" y="0px"
	 viewBox="0 0 81 78" style="enable-background:new 0 0 81 78;" xml:space="preserve">
<style type="text/css">
	.st0{stroke:#000000;stroke-miterlimit:10;}
</style>
<title>tree-view-v1</title>
<path class="st0" d="M45,49h32c2.2,0,4-1.8,4-4V30c0-2.2-1.8-4-4-4H45c-2.2,0-4,1.8-4,4v6H21V23h15c2.2,0,4-1.8,4-4V4
	c0-2.2-1.8-4-4-4H4C1.8,0,0,1.8,0,4v15c0,2.2,1.8,4,4,4h14v43.5c0,0.8,0.7,1.5,1.5,1.5c0,0,0,0,0,0H41v6c0,2.2,1.8,4,4,4h32
	c2.2,0,4-1.8,4-4V59c0-2.2-1.8-4-4-4H45c-2.2,0-4,1.8-4,4v6H21V39h20v6C41,47.2,42.8,49,45,49z M3,19V4c0-0.5,0.5-1,1-1h32
	c0.5,0,1,0.5,1,1v15c0,0.5-0.5,1-1,1H4C3.5,20,3,19.5,3,19z M44,59c0-0.5,0.5-1,1-1h32c0.5,0,1,0.5,1,1v15c0,0.5-0.5,1-1,1H45
	c-0.5,0-1-0.5-1-1V59z M44,30c0-0.5,0.5-1,1-1h32c0.5,0,1,0.5,1,1v15c0,0.5-0.5,1-1,1H45c-0.5,0-1-0.5-1-1V30z"/>
</svg>
