<svg width="28" height="28" viewBox="0 0 28 28" fill="none" xmlns="http://www.w3.org/2000/svg">
<path d="M22 17.143V18.5C22 19.314 21.6613 20.01 21.1911 20.557C20.7262 21.099 20.0951 21.541 19.3849 21.891C17.9609 22.591 16.0569 23 14 23C11.9431 23 10.0391 22.592 8.61511 21.891C7.90489 21.541 7.27378 21.099 6.80889 20.557C6.37778 20.057 6.05778 19.429 6.00711 18.701L6 18.5V17.143C6.41333 17.407 6.85511 17.641 7.328 17.838C9.13244 18.589 11.4924 19.008 14 19.008C16.5076 19.008 18.8676 18.589 20.672 17.838C21.0267 17.69 21.3636 17.522 21.6844 17.335L22 17.143ZM6 11.643C6.41333 11.907 6.85511 12.141 7.328 12.338C9.13244 13.089 11.4924 13.508 14 13.508C16.5076 13.508 18.8676 13.089 20.672 12.338C21.1308 12.1475 21.5749 11.9151 22 11.643V14.748C21.4097 15.2606 20.7541 15.6698 20.0551 15.962C18.4951 16.612 16.3538 17.009 14 17.009C11.6471 17.009 9.50578 16.612 7.94489 15.962C7.24595 15.6698 6.59025 15.2606 6 14.748V11.643ZM14 4C16.0569 4 17.9609 4.408 19.3849 5.109C20.0951 5.459 20.7262 5.901 21.1911 6.443C21.6222 6.943 21.9422 7.571 21.9929 8.299L22 8.5V9.248C21.4098 9.76058 20.7541 10.1699 20.0551 10.462C18.4951 11.112 16.3538 11.509 14 11.509C11.6471 11.509 9.50578 11.112 7.94489 10.462C7.34386 10.2112 6.77458 9.87299 6.25156 9.456L6 9.248V8.5C6 7.686 6.33867 6.99 6.80889 6.443C7.27378 5.901 7.90489 5.459 8.61511 5.109C10.0391 4.409 11.9431 4 14 4Z" fill="url(#paint0_linear_1360_21178)"/>
<defs>
<linearGradient id="paint0_linear_1360_21178" x1="14" y1="4" x2="14" y2="23" gradientUnits="userSpaceOnUse">
<stop stop-color="#1061AC"/>
<stop offset="1" stop-color="#1F5384"/>
</linearGradient>
</defs>
</svg>
