<svg width="28" height="28" viewBox="0 0 28 28" fill="none" xmlns="http://www.w3.org/2000/svg">
<path fill-rule="evenodd" clip-rule="evenodd" d="M12.5967 3.23529C13.1685 2.93032 13.8526 2.92132 14.4323 3.21115L23.0615 7.52576L23.6143 7.80215V8.42019V8.4203V8.42043V8.42063V8.42088V8.42118V8.42154V8.42195V8.42241V8.42293V8.42351V8.42414V8.42482V8.42556V8.42634V8.42719V8.42808V8.42903V8.43003V8.43109V8.43219V8.43335V8.43456V8.43583V8.43714V8.43851V8.43993V8.4414V8.44292V8.44449V8.44611V8.44779V8.44951V8.45129V8.45312V8.45499V8.45692V8.4589V8.46092V8.463V8.46513V8.4673V8.46953V8.4718V8.47413V8.4765V8.47892V8.48139V8.48391V8.48647V8.48909V8.49175V8.49446V8.49722V8.50002V8.50287V8.50577V8.50872V8.51171V8.51475V8.51784V8.52097V8.52415V8.52738V8.53065V8.53397V8.53734V8.54075V8.5442V8.5477V8.55125V8.55484V8.55847V8.56215V8.56588V8.56965V8.57346V8.57732V8.58122V8.58517V8.58915V8.59319V8.59726V8.60138V8.60555V8.60975V8.614V8.61829V8.62262V8.627V8.63142V8.63588V8.64038V8.64492V8.64951V8.65414V8.6588V8.66351V8.66826V8.67306V8.67789V8.68276V8.68767V8.69263V8.69762V8.70266V8.70773V8.71284V8.718V8.72319V8.72842V8.73369V8.739V8.74435V8.74974V8.75516V8.76063V8.76613V8.77167V8.77725V8.78287V8.78852V8.79421V8.79994V8.80571V8.81151V8.81735V8.82323V8.82914V8.83509V8.84108V8.8471V8.85316V8.85925V8.86538V8.87155V8.87775V8.88399V8.89026V8.89657V8.90291V8.90928V8.91569V8.92214V8.92862V8.93513V8.94168V8.94826V8.95488V8.96153V8.96821V8.97492V8.98167V8.98845V8.99527V9.00212V9.009V9.01591V9.02285V9.02983V9.03683V9.04387V9.05095V9.05805V9.06518V9.07235V9.07955V9.08677V9.09403V9.10132V9.10864V9.11599V9.12337V9.13078V9.13822V9.14568V9.15318V9.16071V9.16827V9.17585V9.18347V9.19111V9.19879V9.20649V9.21422V9.22198V9.22976V9.23758V9.24542V9.25329V9.26119V9.26911V9.27706V9.28504V9.29305V9.30108V9.30914V9.31722V9.32533V9.33347V9.34163V9.34982V9.35804V9.36628V9.37455V9.38284V9.39116V9.3995V9.40787V9.41626V9.42467V9.43311V9.44158V9.45007V9.45858V9.46712V9.47568V9.48426V9.49287V9.5015V9.51015V9.51883V9.52753V9.53625V9.54499V9.55376V9.56255V9.57136V9.58019V9.58905V9.59792V9.60682V9.61574V9.62468V9.63364V9.64262V9.65162V9.66065V9.66969V9.67875V9.68784V9.69694V9.70607V9.71521V9.72437V9.73356V9.74276V9.75198V9.76122V9.77048V9.77975V9.78905V9.79836V9.8077V9.81705V9.82642V9.8358V9.8452V9.85463V9.86406V9.87352V9.88299V9.89248V9.90199V9.91151V9.92105V9.93061V9.94018V9.94977V9.95937V9.96899V9.97863V9.98828V9.99794V10.0076V10.0173V10.027V10.0368V10.0465V10.0563V10.066V10.0758V10.0856V10.0954V10.1052V10.1151V10.1249V10.1348V10.1447V10.1546V10.1645V10.1744V10.1843V10.1942V10.2042V10.2142V10.2241V10.2341V10.2441V10.2541V10.2642V10.2742V10.2842V10.2943V10.3044V10.3144V10.3245V10.3346V10.3447V10.3548V10.365V10.3751V10.3853V10.3954V10.4056V10.4157V10.4259V10.4361V10.4463V10.4565V10.4667V10.477V10.4872V10.4974V10.5077V10.518V10.5282V10.5385V10.5488V10.5591V10.5693V10.5796V10.59V10.6003V10.6106V10.6209V10.6312V10.6416V10.6519V10.6623V10.6726V10.683V10.6933V10.7037V10.7141V10.7245V10.7348V10.7452V10.7556V10.766V10.7764V10.7868V10.7972V10.8076V10.8181V10.8285V10.8389V10.8493V10.8597V10.8702V10.8806V10.891V10.9015V10.9119V10.9223V10.9328V10.9432V10.9537V10.9641V10.9746V10.985V10.9955V11.0059V11.0164V11.0268V11.0373V11.0477V11.0582V11.0686V11.0791V11.0895V11.0999V11.1104V11.1208V11.1313V11.1417V11.1522V11.1626V11.1731V11.1835V11.1939V11.2044V11.2148V11.2252V11.2357V11.2461V11.2565V11.2669V11.2773V11.2877V11.2981V11.3086V11.319V11.3293V11.3397V11.3501V11.3605V11.3709V11.3813V11.3916V11.402V11.4124V11.4227V11.4331V11.4434V11.4538V11.4641V11.4744V11.4847V11.4951V11.5054V11.5157V11.526V11.5362V11.5465V11.5568V11.5671V11.5773V11.5876V11.5978V11.6081V11.6183V11.6285V11.6387V11.6489V11.6591V11.6693V11.6795V11.6897V11.6998V11.71V11.7201V11.7302V11.7404V11.7505V11.7606V11.7707V11.7807V11.7908V11.8009V11.8109V11.821V11.831V11.841V11.851V11.861V11.871V11.8809V11.8909V11.9008V11.9108V11.9207V11.9306V11.9405V11.9504V11.9602V11.9701V11.9799V11.9898V11.9996V12.0094V12.0192V12.029V12.0387V12.0485V12.0582V12.0679V12.0776V12.0873V12.097V12.1066V12.1163V12.1259V12.1355V12.1451V12.1547V12.1642V12.1738V12.1833V12.1928V12.2023V12.2118V12.2213V12.2307V12.2401V12.2495V12.2589V12.2683V12.2777V12.287V12.2963V12.3056V12.3149V12.3242V12.3334V12.3426V12.3519V12.361V12.3702V12.3794V12.3885V12.3976V12.4095V12.4215V12.4335V12.4455V12.4575V12.4696V12.4816V12.4937V12.5058V12.5179V12.5301V12.5422V12.5544V12.5666V12.5788V12.591V12.6033V12.6155V12.6278V12.6401V12.6524V12.6648V12.6771V12.6895V12.7019V12.7143V12.7267V12.7392V12.7516V12.7641V12.7766V12.7891V12.8016V12.8141V12.8267V12.8393V12.8519V12.8645V12.8771V12.8897V12.9024V12.915V12.9277V12.9404V12.9531V12.9658V12.9786V12.9913V13.0041V13.0169V13.0297V13.0425V13.0553V13.0682V13.081V13.0939V13.1068V13.1197V13.1326V13.1455V13.1584V13.1714V13.1844V13.1973V13.2103V13.2233V13.2363V13.2494V13.2624V13.2754V13.2885V13.3016V13.3147V13.3278V13.3409V13.354V13.3671V13.3803V13.3934V13.4066V13.4198V13.4329V13.4461V13.4593V13.4726V13.4858V13.499V13.5123V13.5255V13.5388V13.5521V13.5654V13.5787V13.592V13.6053V13.6186V13.632V13.6453V13.6587V13.672V13.6854V13.6988V13.7122V13.7256V13.739V13.7524V13.7658V13.7792V13.7927V13.8061V13.8196V13.833V13.8465V13.86V13.8735V13.8869V13.9004V13.9139V13.9274V13.941V13.9545V13.968V13.9815V13.9951V14.0086V14.0222V14.0357V14.0493V14.0629V14.0765V14.09V14.1036V14.1172V14.1308V14.1444V14.158V14.1716V14.1852V14.1988V14.2125V14.2261V14.2397V14.2534V14.267V14.2806V14.2943V14.3079V14.3216V14.3352V14.3489V14.3626V14.3762V14.3899V14.4036V14.4172V14.4309V14.4446V14.4583V14.472V14.4856V14.4993V14.513V14.5267V14.5404V14.5541V14.5678V14.5815V14.5952V14.6089V14.6226V14.6363V14.65V14.6637V14.6774V14.6911V14.7048V14.7185V14.7322V14.7459V14.7596V14.7733V14.787V14.8007V14.8144V14.8281V14.8418V14.8555V14.8692V14.8829V14.8965V14.9102V14.9239V14.9376V14.9513V14.965V14.9787V14.9923V15.006V15.0197V15.0334V15.047V15.0607V15.0744V15.088V15.1017V15.1153V15.129V15.1427V15.1563V15.1699V15.1836V15.1972V15.2108V15.2245V15.2381V15.2517V15.2653V15.2789V15.2925V15.3061V15.3197V15.3333V15.3469V15.3605V15.374V15.3876V15.4012V15.4147V15.4283V15.4418V15.4554V15.4689V15.4824V15.496V15.5095V15.523V15.5365V15.55V15.5635V15.5769V15.5904V15.6039V15.6173V15.6308V15.6442V15.6577V15.6711V15.6845V15.6979V15.7113V15.7247V15.7381V15.7515V15.7649V15.7782V15.7916V15.8049V15.8183V15.8316V15.8449V15.8582V15.8715V15.8848V15.8981V15.9113V15.9246V15.9378V15.9511V15.9643V15.9775V15.9907V16.0039V16.0171V16.0303V16.0434V16.0566V16.0697V16.0829V16.096V16.1091V16.1222V16.1353V16.1483V16.1614V16.1745V16.1875V16.2005V16.2135V16.2265V16.2395V16.2525V16.2654V16.2784V16.2913V16.3042V16.3172V16.33V16.3429V16.3558V16.3686V16.3815V16.3943V16.4071V16.4199V16.4327V16.4455V16.4582V16.471V16.4837V16.4964V16.5091V16.5218V16.5344V16.5471V16.5597V16.5723V16.5849V16.5975V16.6101V16.6226V16.6352V16.6477V16.6602V16.6727V16.6851V16.6976V16.71V16.7225V16.7349V16.7473V16.7596V16.772V16.7843V16.7966V16.8089V16.8212V16.8335V16.8457V16.8579V16.8701V16.8823V16.8945V16.9067V16.9188V16.9309V16.943V16.9551V16.9671V16.9792V16.9912V17.0032V17.0152V17.0271V17.0391V17.051V17.0629V17.0748V17.0866V17.0985V17.1103V17.1221V17.1339V17.1456V17.1574V17.1691V17.1808V17.1924V17.2041V17.2157V17.2273V17.2389V17.2505V17.262V17.2735V17.285V17.2965V17.308V17.3194V17.3308V17.3422V17.3535V17.3649V17.3762V17.3875V17.3987V17.41V17.4212V17.4324V17.4436V17.4547V17.4658V17.4769V17.488V17.4991V17.5101V17.5211V17.5321V17.543V17.554V17.5649V17.5757V17.5866V17.5974V17.6082V17.619V17.6298V17.6405V17.6512V17.6618V17.6725V17.6831V17.6937V17.7043V17.7148V17.7253V17.7358V17.7463V17.7567V17.7671V17.7775V17.7878V17.7982V17.8085V17.8187V17.829V17.8392V17.8494V17.8595V17.8696V17.8797V17.8898V17.8998V17.9099V17.9198V17.9298V17.9397V17.9496V17.9595V17.9693V17.9791V17.9889V17.9986V18.0084V18.018V18.0277V18.0373V18.0469V18.0565V18.066V18.0755V18.085V18.0944V18.1039V18.1132V18.1226V18.1319V18.1412V18.1504V18.1597V18.1689V18.178V18.1871V18.1962V18.2053V18.2143V18.2233V18.2323V18.2412V18.2501V18.259V18.2678V18.2766V18.2854V18.2941V18.3028V18.3115V18.3201V18.3287V18.3373V18.3458V18.3543V18.3628V18.3712V18.3796V18.3879V18.3963V18.4046V18.4128V18.421V18.4292V18.4374V18.4455V18.4535V18.4616V18.4696V18.4776V18.4855V18.4934V18.5012V18.5091V18.5169V18.5246V18.5323V18.54V18.5476V18.5552V18.5628V18.5703V18.5778V18.5853V18.5927V18.6001C23.6143 19.36 23.1842 20.0491 22.5087 20.3869L13.9703 24.6561L13.5082 24.8871L13.0525 24.644L5.05882 20.3807C4.4071 20.0332 4 19.3547 4 18.616V9.02018C4 8.28156 4.4071 7.60307 5.05882 7.25548L12.5967 3.23529ZM20.5377 8.49994L13.5378 5L7.36549 8.29192C7.59672 8.41295 7.82197 8.55043 8.04577 8.70921C8.73246 9.19638 9.3695 9.85873 10.1203 10.7793C10.6861 10.5605 11.311 10.5271 11.9027 10.6908C12.6289 10.8917 13.2456 11.3728 13.6171 12.0283L11.4577 13.252L11.1454 13.429L8.67364 14.8297C8.30215 14.1741 8.20629 13.3979 8.40715 12.6717C8.50866 12.3047 8.68173 11.9657 8.91271 11.6721C8.21546 10.8221 7.69033 10.2962 7.17784 9.93261C6.81882 9.6779 6.44872 9.49067 6 9.33341V18.616L12.523 22.095V20.3524C12.523 19.8002 12.9708 19.3524 13.523 19.3524C14.0753 19.3524 14.523 19.8002 14.523 20.3524V22.1436L21.6143 18.598L21.6143 18.5927V18.5853V18.5778V18.5703V18.5628V18.5552V18.5476V18.54V18.5323V18.5246V18.5169V18.5091V18.5012V18.4934V18.4855V18.4776V18.4696V18.4616V18.4535V18.4455V18.4374V18.4292V18.421V18.4128V18.4046V18.3963V18.3879V18.3796V18.3712V18.3628V18.3543V18.3458V18.3373V18.3287V18.3201V18.3115V18.3028V18.2941V18.2854V18.2766V18.2678V18.259V18.2501V18.2412V18.2323V18.2233V18.2143V18.2053V18.1962V18.1871V18.178V18.1689V18.1597V18.1504V18.1412V18.1319V18.1226V18.1132V18.1039V18.0944V18.085V18.0755V18.066V18.0565V18.0469V18.0373V18.0277V18.018V18.0084V17.9986V17.9889V17.9791V17.9693V17.9595V17.9496V17.9397V17.9298V17.9198V17.9099V17.8998V17.8898V17.8797V17.8696V17.8595V17.8494V17.8392V17.829V17.8187V17.8085V17.7982V17.7878V17.7775V17.7671V17.7567V17.7463V17.7358V17.7253V17.7148V17.7043V17.6937V17.6831V17.6725V17.6618V17.6512V17.6405V17.6298V17.619V17.6082V17.5974V17.5866V17.5757V17.5649V17.554V17.543V17.5321V17.5211V17.5101V17.4991V17.488V17.4769V17.4658V17.4547V17.4436V17.4324V17.4212V17.41V17.3987V17.3875V17.3762V17.3649V17.3535V17.3422V17.3308V17.3194V17.308V17.2965V17.285V17.2735V17.262V17.2505V17.2389V17.2273V17.2157V17.2041V17.1924V17.1808V17.1691V17.1574V17.1456V17.1339V17.1221V17.1103V17.0985V17.0866V17.0748V17.0629V17.051V17.0391V17.0271V17.0152V17.0032V16.9912V16.9792V16.9671V16.9551V16.943V16.9309V16.9188V16.9067V16.8945V16.8823V16.8701V16.8579V16.8457V16.8335V16.8212V16.8089V16.7966V16.7843V16.772V16.7596V16.7473V16.7349V16.7225V16.71V16.6976V16.6851V16.6727V16.6602V16.6477V16.6352V16.6226V16.6101V16.5975V16.5849V16.5723V16.5597V16.5471V16.5344V16.5218V16.5091V16.4964V16.4837V16.471V16.4582V16.4455V16.4327V16.4199V16.4071V16.3943V16.3815V16.3721C21.1895 16.9232 20.7056 17.3401 20.139 17.6139C18.8211 18.2508 17.2726 18.0086 15.4862 17.3641C15.4593 17.3836 15.432 17.4025 15.4042 17.4208C14.8289 17.8013 14.1121 17.9165 13.4113 17.7411C12.7106 17.5658 12.0835 17.1142 11.6679 16.4857L12.6703 15.8227L11.9254 14.8366C11.7956 14.6648 11.8296 14.4202 12.0015 14.2904C12.1734 14.1605 12.4179 14.1946 12.5478 14.3665L13.3222 15.3916L13.5405 15.2473L13.8371 15.0511L13.8422 15.0478L14.0136 14.9344L13.2079 13.8679C13.078 13.696 13.1121 13.4515 13.284 13.3216C13.4558 13.1918 13.7004 13.2259 13.8302 13.3977L14.6654 14.5033L16.0064 13.6166C16.422 14.245 16.592 14.9989 16.4791 15.7124C16.4587 15.8415 16.4293 15.9673 16.3914 16.0892C17.8515 16.5688 18.7907 16.5995 19.4863 16.2633C20.2459 15.8963 20.9334 14.9862 21.6143 13.0462V13.0425V13.0297V13.0169V13.0041V12.9913V12.9786V12.9658V12.9531V12.9404V12.9277V12.915V12.9024V12.8897V12.8771V12.8645V12.8519V12.8393V12.8267V12.8141V12.8016V12.7891V12.7766V12.7641V12.7516V12.7392V12.7267V12.7143V12.7019V12.6895V12.6771V12.6648V12.6524V12.6401V12.6278V12.6155V12.6033V12.591V12.5788V12.5666V12.5544V12.5422V12.5301V12.5179V12.5058V12.4937V12.4816V12.4696V12.4575V12.4455V12.4335V12.4215V12.4095V12.3976V12.3885V12.3794V12.3702V12.361V12.3519V12.3426V12.3334V12.3242V12.3149V12.3056V12.2963V12.287V12.2777V12.2683V12.2589V12.2495V12.2401V12.2307V12.2213V12.2118V12.2023V12.1928V12.1833V12.1738V12.1642V12.1547V12.1451V12.1355V12.1259V12.1163V12.1066V12.097V12.0873V12.0776V12.0679V12.0582V12.0485V12.0387V12.029V12.0192V12.0094V11.9996V11.9898V11.9799V11.9701V11.9602V11.9504V11.9405V11.9306V11.9207V11.9108V11.9008V11.8909V11.8809V11.871V11.861V11.851V11.841V11.831V11.821V11.8109V11.8009V11.7908V11.7807V11.7707V11.7606V11.7505V11.7404V11.7302V11.7201V11.71V11.6998V11.6897V11.6795V11.6693V11.6591V11.6489V11.6387V11.6285V11.6183V11.6081V11.5978V11.5876V11.5773V11.5671V11.5568V11.5465V11.5362V11.526V11.5157V11.5054V11.4951V11.4847V11.4744V11.4641V11.4538V11.4434V11.4331V11.4227V11.4124V11.402V11.3916V11.3813V11.3709V11.3605V11.3501V11.3397V11.3293V11.319V11.3086V11.2981V11.2877V11.2773V11.2669V11.2565V11.2461V11.2357V11.2252V11.2148V11.2044V11.1939V11.1835V11.1731V11.1626V11.1522V11.1417V11.1313V11.1208V11.1104V11.0999V11.0895V11.0791V11.0686V11.0582V11.0477V11.0373V11.0268V11.0164V11.0059V10.9955V10.985V10.9746V10.9641V10.9537V10.9432V10.9328V10.9223V10.9119V10.9015V10.891V10.8806V10.8702V10.8597V10.8493V10.8389V10.8285V10.8181V10.8076V10.7972V10.7868V10.7764V10.766V10.7556V10.7452V10.7348V10.7245V10.7141V10.7037V10.6933V10.683V10.6726V10.6623V10.6519V10.6416V10.6312V10.6209V10.6106V10.6003V10.59V10.5796V10.5693V10.5591V10.5488V10.5385V10.5282V10.518V10.5077V10.4974V10.4872V10.477V10.4667V10.4565V10.4463V10.4361V10.4259V10.4157V10.4056V10.3954V10.3853V10.3751V10.365V10.3548V10.3447V10.3346V10.3245V10.3144V10.3044V10.2943V10.2842V10.2742V10.2642V10.2541V10.2441V10.2341V10.2241V10.2142V10.2042V10.1942V10.1864L17.4468 12.6869C16.9732 12.971 16.3589 12.8175 16.0748 12.3439C15.7906 11.8703 15.9442 11.2561 16.4178 10.9719L20.5377 8.49994Z" fill="url(#paint0_linear_1360_21184)"/>
<defs>
<linearGradient id="paint0_linear_1360_21184" x1="4" y1="13.1661" x2="23.4172" y2="13.1661" gradientUnits="userSpaceOnUse">
<stop stop-color="#0763A1"/>
<stop offset="1" stop-color="#179775"/>
</linearGradient>
</defs>
</svg>
