<svg width="28" height="28" viewBox="0 0 28 28" fill="none" xmlns="http://www.w3.org/2000/svg">
<path d="M18.5 13.6562V14.8594C18.5 15.143 18.2469 15.375 17.9375 15.375H10.0625C9.75313 15.375 9.5 15.143 9.5 14.8594V13.6562C9.5 13.3727 9.75313 13.1406 10.0625 13.1406H17.9375C18.2469 13.1406 18.5 13.3727 18.5 13.6562ZM17.9375 16.75H10.0625C9.75313 16.75 9.5 16.982 9.5 17.2656V18.4688C9.5 18.7523 9.75313 18.9844 10.0625 18.9844H17.9375C18.2469 18.9844 18.5 18.7523 18.5 18.4688V17.2656C18.5 16.982 18.2469 16.75 17.9375 16.75ZM23 8.66758V22.9375C23 24.0762 21.9922 25 20.75 25H7.25C6.00781 25 5 24.0762 5 22.9375V5.0625C5 3.92383 6.00781 3 7.25 3H16.8172C17.4125 3 17.9844 3.21914 18.4062 3.60586L22.3391 7.21094C22.7609 7.59336 23 8.12187 23 8.66758ZM17 5.23008V8.5H20.5672L17 5.23008ZM20.75 22.9375V10.5625H15.875C15.2516 10.5625 14.75 10.1027 14.75 9.53125V5.0625H7.25V22.9375H20.75Z" fill="url(#paint0_linear_1360_21195)"/>
<defs>
<linearGradient id="paint0_linear_1360_21195" x1="21.7143" y1="3.61111" x2="12.8802" y2="26.5339" gradientUnits="userSpaceOnUse">
<stop stop-color="#313C47"/>
<stop offset="1" stop-color="#2B62A3"/>
</linearGradient>
</defs>
</svg>
