<svg width="28" height="28" viewBox="0 0 28 28" fill="none" xmlns="http://www.w3.org/2000/svg">
<path d="M8.21053 24H5.05263C4.77346 24 4.50572 23.8891 4.30831 23.6917C4.1109 23.4943 4 23.2265 4 22.9474V14.5263C4 14.2471 4.1109 13.9794 4.30831 13.782C4.50572 13.5846 4.77346 13.4737 5.05263 13.4737H8.21053C8.4897 13.4737 8.75744 13.5846 8.95485 13.782C9.15226 13.9794 9.26316 14.2471 9.26316 14.5263V22.9474C9.26316 23.2265 9.15226 23.4943 8.95485 23.6917C8.75744 23.8891 8.4897 24 8.21053 24ZM15.5789 24H12.4211C12.1419 24 11.8741 23.8891 11.6767 23.6917C11.4793 23.4943 11.3684 23.2265 11.3684 22.9474V5.05263C11.3684 4.77346 11.4793 4.50572 11.6767 4.30831C11.8741 4.1109 12.1419 4 12.4211 4H15.5789C15.8581 4 16.1259 4.1109 16.3233 4.30831C16.5207 4.50572 16.6316 4.77346 16.6316 5.05263V22.9474C16.6316 23.2265 16.5207 23.4943 16.3233 23.6917C16.1259 23.8891 15.8581 24 15.5789 24ZM22.9474 24H19.7895C19.5103 24 19.2426 23.8891 19.0452 23.6917C18.8477 23.4943 18.7368 23.2265 18.7368 22.9474V11.3684C18.7368 11.0892 18.8477 10.8215 19.0452 10.6241C19.2426 10.4267 19.5103 10.3158 19.7895 10.3158H22.9474C23.2265 10.3158 23.4943 10.4267 23.6917 10.6241C23.8891 10.8215 24 11.0892 24 11.3684V22.9474C24 23.2265 23.8891 23.4943 23.6917 23.6917C23.4943 23.8891 23.2265 24 22.9474 24Z" fill="url(#paint0_linear_1360_21176)"/>
<defs>
<linearGradient id="paint0_linear_1360_21176" x1="14" y1="4" x2="14" y2="24" gradientUnits="userSpaceOnUse">
<stop stop-color="#384351"/>
<stop offset="1" stop-color="#174A8A"/>
</linearGradient>
</defs>
</svg>
