<svg width="28" height="28" viewBox="0 0 28 28" fill="none" xmlns="http://www.w3.org/2000/svg">
<path d="M14 4C8.47581 4 4 8.47581 4 14C4 19.5242 8.47581 24 14 24C19.5242 24 24 19.5242 24 14C24 8.47581 19.5242 4 14 4ZM17.7294 16.621L16.923 17.629C16.8701 17.6952 16.8046 17.7503 16.7304 17.7912C16.6562 17.832 16.5746 17.8579 16.4904 17.8673C16.4062 17.8766 16.321 17.8693 16.2396 17.8457C16.1582 17.8221 16.0823 17.7828 16.0161 17.7298L13.3145 15.725C13.1257 15.5739 12.9734 15.3822 12.8687 15.1642C12.764 14.9463 12.7096 14.7075 12.7097 14.4657V8.19355C12.7097 8.02244 12.7776 7.85834 12.8986 7.73735C13.0196 7.61636 13.1837 7.54839 13.3548 7.54839H14.6452C14.8163 7.54839 14.9804 7.61636 15.1014 7.73735C15.2224 7.85834 15.2903 8.02244 15.2903 8.19355V14L17.629 15.7137C17.6952 15.7667 17.7503 15.8321 17.7912 15.9064C17.8321 15.9807 17.8579 16.0623 17.8672 16.1465C17.8766 16.2308 17.8692 16.3161 17.8456 16.3975C17.8219 16.4789 17.7824 16.5548 17.7294 16.621Z" fill="url(#paint0_linear_1360_21193)"/>
<defs>
<linearGradient id="paint0_linear_1360_21193" x1="14.5489" y1="26.7514" x2="14.5489" y2="3.67742" gradientUnits="userSpaceOnUse">
<stop stop-color="#1D48BF"/>
<stop offset="1" stop-color="#272871"/>
</linearGradient>
</defs>
</svg>
