<svg width="28" height="28" viewBox="0 0 28 28" fill="none" xmlns="http://www.w3.org/2000/svg">
<path d="M14 22.7722C15.8187 22.2152 17.3375 21.1154 18.5562 19.4727C19.775 17.83 20.4875 15.9965 20.6937 13.9722H14V5.2L7.25 7.70633V13.4709C7.25 13.6008 7.26875 13.7679 7.30625 13.9722H14V22.7722ZM14 25C13.8687 25 13.7469 24.9907 13.6344 24.9722C13.5219 24.9536 13.4094 24.9257 13.2969 24.8886C10.7656 24.0532 8.75 22.5078 7.25 20.2525C5.75 17.9971 5 15.5695 5 12.9696V7.70633C5 7.24219 5.13612 6.82447 5.40837 6.45316C5.68062 6.08186 6.032 5.81266 6.4625 5.64557L13.2125 3.13924C13.475 3.04641 13.7375 3 14 3C14.2625 3 14.525 3.04641 14.7875 3.13924L21.5375 5.64557C21.9687 5.81266 22.3205 6.08186 22.5927 6.45316C22.865 6.82447 23.0007 7.24219 23 7.70633V12.9696C23 15.5688 22.25 17.9964 20.75 20.2525C19.25 22.5085 17.2344 24.0539 14.7031 24.8886C14.5906 24.9257 14.4781 24.9536 14.3656 24.9722C14.2531 24.9907 14.1312 25 14 25Z" fill="url(#paint0_linear_1360_21197)"/>
<defs>
<linearGradient id="paint0_linear_1360_21197" x1="5" y1="5.61769" x2="20.5942" y2="21.3671" gradientUnits="userSpaceOnUse">
<stop stop-color="#B11663"/>
<stop offset="1" stop-color="#370D60"/>
</linearGradient>
</defs>
</svg>
