<svg width="28" height="28" viewBox="0 0 28 28" fill="none" xmlns="http://www.w3.org/2000/svg">
<path d="M17.8002 5.26941L22.5419 10.1757C24.486 12.1868 24.486 15.4198 22.5419 17.4309L18.3864 21.7301C18.0414 22.0868 17.4774 22.0906 17.1287 21.7377C16.7799 21.3848 16.7762 20.808 17.1213 20.4513L21.273 16.1521C22.5308 14.8506 22.5308 12.7598 21.273 11.4583L16.5351 6.55196C16.19 6.19528 16.1937 5.61851 16.5425 5.26562C16.8912 4.91273 17.4552 4.91652 17.8002 5.27321V5.26941ZM5 12.4942V6.82138C5 5.81582 5.7977 5 6.7809 5H12.3277C12.9584 5 13.5632 5.25423 14.0084 5.70958L20.2416 12.0844C21.1691 13.033 21.1691 14.5698 20.2416 15.5184L15.2884 20.5841C14.3609 21.5328 12.8582 21.5328 11.9307 20.5841L5.69752 14.2093C5.24858 13.754 5 13.1393 5 12.4942ZM10.3427 9.24988C10.3427 8.92784 10.2176 8.61899 9.99496 8.39127C9.77231 8.16356 9.47032 8.03563 9.15544 8.03563C8.84056 8.03563 8.53857 8.16356 8.31591 8.39127C8.09326 8.61899 7.96817 8.92784 7.96817 9.24988C7.96817 9.57192 8.09326 9.88077 8.31591 10.1085C8.53857 10.3362 8.84056 10.4641 9.15544 10.4641C9.47032 10.4641 9.77231 10.3362 9.99496 10.1085C10.2176 9.88077 10.3427 9.57192 10.3427 9.24988Z" fill="url(#paint0_linear_1360_21180)"/>
<defs>
<linearGradient id="paint0_linear_1360_21180" x1="14.5" y1="5" x2="14.5" y2="22" gradientUnits="userSpaceOnUse">
<stop stop-color="#F1A31D"/>
<stop offset="1" stop-color="#F4C81E"/>
</linearGradient>
</defs>
</svg>
