<svg width="48" height="48" viewBox="0 0 48 48" fill="none" xmlns="http://www.w3.org/2000/svg">
<g clip-path="url(#clip0_1688_11881)">
<path fill-rule="evenodd" clip-rule="evenodd" d="M28.2459 4.45947L25.4231 14.7045C25.351 14.9611 25.2825 15.2052 25.2174 15.4375H34.077C35.5223 15.4375 36.4207 17.1256 35.6941 18.4609L21.9441 43.9922C21.6004 44.6305 20.9754 45 20.3191 45C19.1238 45 18.2176 43.799 18.4988 42.5225L22.5385 25.4545H12.8551C11.7348 25.4545 10.8695 24.4121 11.0163 23.2394L13.4887 3.69394C13.6123 2.72481 14.4004 2 15.3275 2H26.4534C27.6664 2 28.5549 3.22159 28.2459 4.45947Z" fill="url(#paint0_linear_1688_11881)"/>
</g>
<defs>
<linearGradient id="paint0_linear_1688_11881" x1="12.5" y1="11" x2="32.9838" y2="25.0237" gradientUnits="userSpaceOnUse">
<stop stop-color="#F1A61D"/>
<stop offset="1" stop-color="#213899"/>
</linearGradient>
<clipPath id="clip0_1688_11881">
<rect width="25" height="43" fill="white" transform="translate(11 2)"/>
</clipPath>
</defs>
</svg>
